<svg version="1.1" xmlns="http://www.w3.org/2000/svg" xmlns:xlink="http://www.w3.org/1999/xlink" width="892" height="838"><defs/><g><text fill="#eeeeee" stroke="none" font-family="Arial" font-size="24px" font-style="normal" font-weight="normal" text-decoration="none" x="0" y="0">UNREGISTERED</text><text fill="#eeeeee" stroke="none" font-family="Arial" font-size="24px" font-style="normal" font-weight="normal" text-decoration="none" x="0" y="30">UNREGISTERED</text><text fill="#eeeeee" stroke="none" font-family="Arial" font-size="24px" font-style="normal" font-weight="normal" text-decoration="none" x="0" y="60">UNREGISTERED</text><text fill="#eeeeee" stroke="none" font-family="Arial" font-size="24px" font-style="normal" font-weight="normal" text-decoration="none" x="0" y="90">UNREGISTERED</text><text fill="#eeeeee" stroke="none" font-family="Arial" font-size="24px" font-style="normal" font-weight="normal" text-decoration="none" x="0" y="120">UNREGISTERED</text><text fill="#eeeeee" stroke="none" font-family="Arial" font-size="24px" font-style="normal" font-weight="normal" text-decoration="none" x="0" y="150">UNREGISTERED</text><text fill="#eeeeee" stroke="none" font-family="Arial" font-size="24px" font-style="normal" font-weight="normal" text-decoration="none" x="0" y="180">UNREGISTERED</text><text fill="#eeeeee" stroke="none" font-family="Arial" font-size="24px" font-style="normal" font-weight="normal" text-decoration="none" x="0" y="210">UNREGISTERED</text><text fill="#eeeeee" stroke="none" font-family="Arial" font-size="24px" font-style="normal" font-weight="normal" text-decoration="none" x="0" y="240">UNREGISTERED</text><text fill="#eeeeee" stroke="none" font-family="Arial" font-size="24px" font-style="normal" font-weight="normal" text-decoration="none" x="0" y="270">UNREGISTERED</text><text fill="#eeeeee" stroke="none" font-family="Arial" font-size="24px" font-style="normal" font-weight="normal" text-decoration="none" x="0" y="300">UNREGISTERED</text><text fill="#eeeeee" stroke="none" font-family="Arial" font-size="24px" font-style="normal" font-weight="normal" text-decoration="none" x="0" y="330">UNREGISTERED</text><text fill="#eeeeee" stroke="none" font-family="Arial" font-size="24px" font-style="normal" font-weight="normal" text-decoration="none" x="0" y="360">UNREGISTERED</text><text fill="#eeeeee" stroke="none" font-family="Arial" font-size="24px" font-style="normal" font-weight="normal" text-decoration="none" x="0" y="390">UNREGISTERED</text><text fill="#eeeeee" stroke="none" font-family="Arial" font-size="24px" font-style="normal" font-weight="normal" text-decoration="none" x="0" y="420">UNREGISTERED</text><text fill="#eeeeee" stroke="none" font-family="Arial" font-size="24px" font-style="normal" font-weight="normal" text-decoration="none" x="0" y="450">UNREGISTERED</text><text fill="#eeeeee" stroke="none" font-family="Arial" font-size="24px" font-style="normal" font-weight="normal" text-decoration="none" x="0" y="480">UNREGISTERED</text><text fill="#eeeeee" stroke="none" font-family="Arial" font-size="24px" font-style="normal" font-weight="normal" text-decoration="none" x="0" y="510">UNREGISTERED</text><text fill="#eeeeee" stroke="none" font-family="Arial" font-size="24px" font-style="normal" font-weight="normal" text-decoration="none" x="0" y="540">UNREGISTERED</text><text fill="#eeeeee" stroke="none" font-family="Arial" font-size="24px" font-style="normal" font-weight="normal" text-decoration="none" x="0" y="570">UNREGISTERED</text><text fill="#eeeeee" stroke="none" font-family="Arial" font-size="24px" font-style="normal" font-weight="normal" text-decoration="none" x="0" y="600">UNREGISTERED</text><text fill="#eeeeee" stroke="none" font-family="Arial" font-size="24px" font-style="normal" font-weight="normal" text-decoration="none" x="0" y="630">UNREGISTERED</text><text fill="#eeeeee" stroke="none" font-family="Arial" font-size="24px" font-style="normal" font-weight="normal" text-decoration="none" x="0" y="660">UNREGISTERED</text><text fill="#eeeeee" stroke="none" font-family="Arial" font-size="24px" font-style="normal" font-weight="normal" text-decoration="none" x="0" y="690">UNREGISTERED</text><text fill="#eeeeee" stroke="none" font-family="Arial" font-size="24px" font-style="normal" font-weight="normal" text-decoration="none" x="0" y="720">UNREGISTERED</text><text fill="#eeeeee" stroke="none" font-family="Arial" font-size="24px" font-style="normal" font-weight="normal" text-decoration="none" x="0" y="750">UNREGISTERED</text><text fill="#eeeeee" stroke="none" font-family="Arial" font-size="24px" font-style="normal" font-weight="normal" text-decoration="none" x="0" y="780">UNREGISTERED</text><text fill="#eeeeee" stroke="none" font-family="Arial" font-size="24px" font-style="normal" font-weight="normal" text-decoration="none" x="0" y="810">UNREGISTERED</text><text fill="#eeeeee" stroke="none" font-family="Arial" font-size="24px" font-style="normal" font-weight="normal" text-decoration="none" x="200" y="0">UNREGISTERED</text><text fill="#eeeeee" stroke="none" font-family="Arial" font-size="24px" font-style="normal" font-weight="normal" text-decoration="none" x="200" y="30">UNREGISTERED</text><text fill="#eeeeee" stroke="none" font-family="Arial" font-size="24px" font-style="normal" font-weight="normal" text-decoration="none" x="200" y="60">UNREGISTERED</text><text fill="#eeeeee" stroke="none" font-family="Arial" font-size="24px" font-style="normal" font-weight="normal" text-decoration="none" x="200" y="90">UNREGISTERED</text><text fill="#eeeeee" stroke="none" font-family="Arial" font-size="24px" font-style="normal" font-weight="normal" text-decoration="none" x="200" y="120">UNREGISTERED</text><text fill="#eeeeee" stroke="none" font-family="Arial" font-size="24px" font-style="normal" font-weight="normal" text-decoration="none" x="200" y="150">UNREGISTERED</text><text fill="#eeeeee" stroke="none" font-family="Arial" font-size="24px" font-style="normal" font-weight="normal" text-decoration="none" x="200" y="180">UNREGISTERED</text><text fill="#eeeeee" stroke="none" font-family="Arial" font-size="24px" font-style="normal" font-weight="normal" text-decoration="none" x="200" y="210">UNREGISTERED</text><text fill="#eeeeee" stroke="none" font-family="Arial" font-size="24px" font-style="normal" font-weight="normal" text-decoration="none" x="200" y="240">UNREGISTERED</text><text fill="#eeeeee" stroke="none" font-family="Arial" font-size="24px" font-style="normal" font-weight="normal" text-decoration="none" x="200" y="270">UNREGISTERED</text><text fill="#eeeeee" stroke="none" font-family="Arial" font-size="24px" font-style="normal" font-weight="normal" text-decoration="none" x="200" y="300">UNREGISTERED</text><text fill="#eeeeee" stroke="none" font-family="Arial" font-size="24px" font-style="normal" font-weight="normal" text-decoration="none" x="200" y="330">UNREGISTERED</text><text fill="#eeeeee" stroke="none" font-family="Arial" font-size="24px" font-style="normal" font-weight="normal" text-decoration="none" x="200" y="360">UNREGISTERED</text><text fill="#eeeeee" stroke="none" font-family="Arial" font-size="24px" font-style="normal" font-weight="normal" text-decoration="none" x="200" y="390">UNREGISTERED</text><text fill="#eeeeee" stroke="none" font-family="Arial" font-size="24px" font-style="normal" font-weight="normal" text-decoration="none" x="200" y="420">UNREGISTERED</text><text fill="#eeeeee" stroke="none" font-family="Arial" font-size="24px" font-style="normal" font-weight="normal" text-decoration="none" x="200" y="450">UNREGISTERED</text><text fill="#eeeeee" stroke="none" font-family="Arial" font-size="24px" font-style="normal" font-weight="normal" text-decoration="none" x="200" y="480">UNREGISTERED</text><text fill="#eeeeee" stroke="none" font-family="Arial" font-size="24px" font-style="normal" font-weight="normal" text-decoration="none" x="200" y="510">UNREGISTERED</text><text fill="#eeeeee" stroke="none" font-family="Arial" font-size="24px" font-style="normal" font-weight="normal" text-decoration="none" x="200" y="540">UNREGISTERED</text><text fill="#eeeeee" stroke="none" font-family="Arial" font-size="24px" font-style="normal" font-weight="normal" text-decoration="none" x="200" y="570">UNREGISTERED</text><text fill="#eeeeee" stroke="none" font-family="Arial" font-size="24px" font-style="normal" font-weight="normal" text-decoration="none" x="200" y="600">UNREGISTERED</text><text fill="#eeeeee" stroke="none" font-family="Arial" font-size="24px" font-style="normal" font-weight="normal" text-decoration="none" x="200" y="630">UNREGISTERED</text><text fill="#eeeeee" stroke="none" font-family="Arial" font-size="24px" font-style="normal" font-weight="normal" text-decoration="none" x="200" y="660">UNREGISTERED</text><text fill="#eeeeee" stroke="none" font-family="Arial" font-size="24px" font-style="normal" font-weight="normal" text-decoration="none" x="200" y="690">UNREGISTERED</text><text fill="#eeeeee" stroke="none" font-family="Arial" font-size="24px" font-style="normal" font-weight="normal" text-decoration="none" x="200" y="720">UNREGISTERED</text><text fill="#eeeeee" stroke="none" font-family="Arial" font-size="24px" font-style="normal" font-weight="normal" text-decoration="none" x="200" y="750">UNREGISTERED</text><text fill="#eeeeee" stroke="none" font-family="Arial" font-size="24px" font-style="normal" font-weight="normal" text-decoration="none" x="200" y="780">UNREGISTERED</text><text fill="#eeeeee" stroke="none" font-family="Arial" font-size="24px" font-style="normal" font-weight="normal" text-decoration="none" x="200" y="810">UNREGISTERED</text><text fill="#eeeeee" stroke="none" font-family="Arial" font-size="24px" font-style="normal" font-weight="normal" text-decoration="none" x="400" y="0">UNREGISTERED</text><text fill="#eeeeee" stroke="none" font-family="Arial" font-size="24px" font-style="normal" font-weight="normal" text-decoration="none" x="400" y="30">UNREGISTERED</text><text fill="#eeeeee" stroke="none" font-family="Arial" font-size="24px" font-style="normal" font-weight="normal" text-decoration="none" x="400" y="60">UNREGISTERED</text><text fill="#eeeeee" stroke="none" font-family="Arial" font-size="24px" font-style="normal" font-weight="normal" text-decoration="none" x="400" y="90">UNREGISTERED</text><text fill="#eeeeee" stroke="none" font-family="Arial" font-size="24px" font-style="normal" font-weight="normal" text-decoration="none" x="400" y="120">UNREGISTERED</text><text fill="#eeeeee" stroke="none" font-family="Arial" font-size="24px" font-style="normal" font-weight="normal" text-decoration="none" x="400" y="150">UNREGISTERED</text><text fill="#eeeeee" stroke="none" font-family="Arial" font-size="24px" font-style="normal" font-weight="normal" text-decoration="none" x="400" y="180">UNREGISTERED</text><text fill="#eeeeee" stroke="none" font-family="Arial" font-size="24px" font-style="normal" font-weight="normal" text-decoration="none" x="400" y="210">UNREGISTERED</text><text fill="#eeeeee" stroke="none" font-family="Arial" font-size="24px" font-style="normal" font-weight="normal" text-decoration="none" x="400" y="240">UNREGISTERED</text><text fill="#eeeeee" stroke="none" font-family="Arial" font-size="24px" font-style="normal" font-weight="normal" text-decoration="none" x="400" y="270">UNREGISTERED</text><text fill="#eeeeee" stroke="none" font-family="Arial" font-size="24px" font-style="normal" font-weight="normal" text-decoration="none" x="400" y="300">UNREGISTERED</text><text fill="#eeeeee" stroke="none" font-family="Arial" font-size="24px" font-style="normal" font-weight="normal" text-decoration="none" x="400" y="330">UNREGISTERED</text><text fill="#eeeeee" stroke="none" font-family="Arial" font-size="24px" font-style="normal" font-weight="normal" text-decoration="none" x="400" y="360">UNREGISTERED</text><text fill="#eeeeee" stroke="none" font-family="Arial" font-size="24px" font-style="normal" font-weight="normal" text-decoration="none" x="400" y="390">UNREGISTERED</text><text fill="#eeeeee" stroke="none" font-family="Arial" font-size="24px" font-style="normal" font-weight="normal" text-decoration="none" x="400" y="420">UNREGISTERED</text><text fill="#eeeeee" stroke="none" font-family="Arial" font-size="24px" font-style="normal" font-weight="normal" text-decoration="none" x="400" y="450">UNREGISTERED</text><text fill="#eeeeee" stroke="none" font-family="Arial" font-size="24px" font-style="normal" font-weight="normal" text-decoration="none" x="400" y="480">UNREGISTERED</text><text fill="#eeeeee" stroke="none" font-family="Arial" font-size="24px" font-style="normal" font-weight="normal" text-decoration="none" x="400" y="510">UNREGISTERED</text><text fill="#eeeeee" stroke="none" font-family="Arial" font-size="24px" font-style="normal" font-weight="normal" text-decoration="none" x="400" y="540">UNREGISTERED</text><text fill="#eeeeee" stroke="none" font-family="Arial" font-size="24px" font-style="normal" font-weight="normal" text-decoration="none" x="400" y="570">UNREGISTERED</text><text fill="#eeeeee" stroke="none" font-family="Arial" font-size="24px" font-style="normal" font-weight="normal" text-decoration="none" x="400" y="600">UNREGISTERED</text><text fill="#eeeeee" stroke="none" font-family="Arial" font-size="24px" font-style="normal" font-weight="normal" text-decoration="none" x="400" y="630">UNREGISTERED</text><text fill="#eeeeee" stroke="none" font-family="Arial" font-size="24px" font-style="normal" font-weight="normal" text-decoration="none" x="400" y="660">UNREGISTERED</text><text fill="#eeeeee" stroke="none" font-family="Arial" font-size="24px" font-style="normal" font-weight="normal" text-decoration="none" x="400" y="690">UNREGISTERED</text><text fill="#eeeeee" stroke="none" font-family="Arial" font-size="24px" font-style="normal" font-weight="normal" text-decoration="none" x="400" y="720">UNREGISTERED</text><text fill="#eeeeee" stroke="none" font-family="Arial" font-size="24px" font-style="normal" font-weight="normal" text-decoration="none" x="400" y="750">UNREGISTERED</text><text fill="#eeeeee" stroke="none" font-family="Arial" font-size="24px" font-style="normal" font-weight="normal" text-decoration="none" x="400" y="780">UNREGISTERED</text><text fill="#eeeeee" stroke="none" font-family="Arial" font-size="24px" font-style="normal" font-weight="normal" text-decoration="none" x="400" y="810">UNREGISTERED</text><text fill="#eeeeee" stroke="none" font-family="Arial" font-size="24px" font-style="normal" font-weight="normal" text-decoration="none" x="600" y="0">UNREGISTERED</text><text fill="#eeeeee" stroke="none" font-family="Arial" font-size="24px" font-style="normal" font-weight="normal" text-decoration="none" x="600" y="30">UNREGISTERED</text><text fill="#eeeeee" stroke="none" font-family="Arial" font-size="24px" font-style="normal" font-weight="normal" text-decoration="none" x="600" y="60">UNREGISTERED</text><text fill="#eeeeee" stroke="none" font-family="Arial" font-size="24px" font-style="normal" font-weight="normal" text-decoration="none" x="600" y="90">UNREGISTERED</text><text fill="#eeeeee" stroke="none" font-family="Arial" font-size="24px" font-style="normal" font-weight="normal" text-decoration="none" x="600" y="120">UNREGISTERED</text><text fill="#eeeeee" stroke="none" font-family="Arial" font-size="24px" font-style="normal" font-weight="normal" text-decoration="none" x="600" y="150">UNREGISTERED</text><text fill="#eeeeee" stroke="none" font-family="Arial" font-size="24px" font-style="normal" font-weight="normal" text-decoration="none" x="600" y="180">UNREGISTERED</text><text fill="#eeeeee" stroke="none" font-family="Arial" font-size="24px" font-style="normal" font-weight="normal" text-decoration="none" x="600" y="210">UNREGISTERED</text><text fill="#eeeeee" stroke="none" font-family="Arial" font-size="24px" font-style="normal" font-weight="normal" text-decoration="none" x="600" y="240">UNREGISTERED</text><text fill="#eeeeee" stroke="none" font-family="Arial" font-size="24px" font-style="normal" font-weight="normal" text-decoration="none" x="600" y="270">UNREGISTERED</text><text fill="#eeeeee" stroke="none" font-family="Arial" font-size="24px" font-style="normal" font-weight="normal" text-decoration="none" x="600" y="300">UNREGISTERED</text><text fill="#eeeeee" stroke="none" font-family="Arial" font-size="24px" font-style="normal" font-weight="normal" text-decoration="none" x="600" y="330">UNREGISTERED</text><text fill="#eeeeee" stroke="none" font-family="Arial" font-size="24px" font-style="normal" font-weight="normal" text-decoration="none" x="600" y="360">UNREGISTERED</text><text fill="#eeeeee" stroke="none" font-family="Arial" font-size="24px" font-style="normal" font-weight="normal" text-decoration="none" x="600" y="390">UNREGISTERED</text><text fill="#eeeeee" stroke="none" font-family="Arial" font-size="24px" font-style="normal" font-weight="normal" text-decoration="none" x="600" y="420">UNREGISTERED</text><text fill="#eeeeee" stroke="none" font-family="Arial" font-size="24px" font-style="normal" font-weight="normal" text-decoration="none" x="600" y="450">UNREGISTERED</text><text fill="#eeeeee" stroke="none" font-family="Arial" font-size="24px" font-style="normal" font-weight="normal" text-decoration="none" x="600" y="480">UNREGISTERED</text><text fill="#eeeeee" stroke="none" font-family="Arial" font-size="24px" font-style="normal" font-weight="normal" text-decoration="none" x="600" y="510">UNREGISTERED</text><text fill="#eeeeee" stroke="none" font-family="Arial" font-size="24px" font-style="normal" font-weight="normal" text-decoration="none" x="600" y="540">UNREGISTERED</text><text fill="#eeeeee" stroke="none" font-family="Arial" font-size="24px" font-style="normal" font-weight="normal" text-decoration="none" x="600" y="570">UNREGISTERED</text><text fill="#eeeeee" stroke="none" font-family="Arial" font-size="24px" font-style="normal" font-weight="normal" text-decoration="none" x="600" y="600">UNREGISTERED</text><text fill="#eeeeee" stroke="none" font-family="Arial" font-size="24px" font-style="normal" font-weight="normal" text-decoration="none" x="600" y="630">UNREGISTERED</text><text fill="#eeeeee" stroke="none" font-family="Arial" font-size="24px" font-style="normal" font-weight="normal" text-decoration="none" x="600" y="660">UNREGISTERED</text><text fill="#eeeeee" stroke="none" font-family="Arial" font-size="24px" font-style="normal" font-weight="normal" text-decoration="none" x="600" y="690">UNREGISTERED</text><text fill="#eeeeee" stroke="none" font-family="Arial" font-size="24px" font-style="normal" font-weight="normal" text-decoration="none" x="600" y="720">UNREGISTERED</text><text fill="#eeeeee" stroke="none" font-family="Arial" font-size="24px" font-style="normal" font-weight="normal" text-decoration="none" x="600" y="750">UNREGISTERED</text><text fill="#eeeeee" stroke="none" font-family="Arial" font-size="24px" font-style="normal" font-weight="normal" text-decoration="none" x="600" y="780">UNREGISTERED</text><text fill="#eeeeee" stroke="none" font-family="Arial" font-size="24px" font-style="normal" font-weight="normal" text-decoration="none" x="600" y="810">UNREGISTERED</text><text fill="#eeeeee" stroke="none" font-family="Arial" font-size="24px" font-style="normal" font-weight="normal" text-decoration="none" x="800" y="0">UNREGISTERED</text><text fill="#eeeeee" stroke="none" font-family="Arial" font-size="24px" font-style="normal" font-weight="normal" text-decoration="none" x="800" y="30">UNREGISTERED</text><text fill="#eeeeee" stroke="none" font-family="Arial" font-size="24px" font-style="normal" font-weight="normal" text-decoration="none" x="800" y="60">UNREGISTERED</text><text fill="#eeeeee" stroke="none" font-family="Arial" font-size="24px" font-style="normal" font-weight="normal" text-decoration="none" x="800" y="90">UNREGISTERED</text><text fill="#eeeeee" stroke="none" font-family="Arial" font-size="24px" font-style="normal" font-weight="normal" text-decoration="none" x="800" y="120">UNREGISTERED</text><text fill="#eeeeee" stroke="none" font-family="Arial" font-size="24px" font-style="normal" font-weight="normal" text-decoration="none" x="800" y="150">UNREGISTERED</text><text fill="#eeeeee" stroke="none" font-family="Arial" font-size="24px" font-style="normal" font-weight="normal" text-decoration="none" x="800" y="180">UNREGISTERED</text><text fill="#eeeeee" stroke="none" font-family="Arial" font-size="24px" font-style="normal" font-weight="normal" text-decoration="none" x="800" y="210">UNREGISTERED</text><text fill="#eeeeee" stroke="none" font-family="Arial" font-size="24px" font-style="normal" font-weight="normal" text-decoration="none" x="800" y="240">UNREGISTERED</text><text fill="#eeeeee" stroke="none" font-family="Arial" font-size="24px" font-style="normal" font-weight="normal" text-decoration="none" x="800" y="270">UNREGISTERED</text><text fill="#eeeeee" stroke="none" font-family="Arial" font-size="24px" font-style="normal" font-weight="normal" text-decoration="none" x="800" y="300">UNREGISTERED</text><text fill="#eeeeee" stroke="none" font-family="Arial" font-size="24px" font-style="normal" font-weight="normal" text-decoration="none" x="800" y="330">UNREGISTERED</text><text fill="#eeeeee" stroke="none" font-family="Arial" font-size="24px" font-style="normal" font-weight="normal" text-decoration="none" x="800" y="360">UNREGISTERED</text><text fill="#eeeeee" stroke="none" font-family="Arial" font-size="24px" font-style="normal" font-weight="normal" text-decoration="none" x="800" y="390">UNREGISTERED</text><text fill="#eeeeee" stroke="none" font-family="Arial" font-size="24px" font-style="normal" font-weight="normal" text-decoration="none" x="800" y="420">UNREGISTERED</text><text fill="#eeeeee" stroke="none" font-family="Arial" font-size="24px" font-style="normal" font-weight="normal" text-decoration="none" x="800" y="450">UNREGISTERED</text><text fill="#eeeeee" stroke="none" font-family="Arial" font-size="24px" font-style="normal" font-weight="normal" text-decoration="none" x="800" y="480">UNREGISTERED</text><text fill="#eeeeee" stroke="none" font-family="Arial" font-size="24px" font-style="normal" font-weight="normal" text-decoration="none" x="800" y="510">UNREGISTERED</text><text fill="#eeeeee" stroke="none" font-family="Arial" font-size="24px" font-style="normal" font-weight="normal" text-decoration="none" x="800" y="540">UNREGISTERED</text><text fill="#eeeeee" stroke="none" font-family="Arial" font-size="24px" font-style="normal" font-weight="normal" text-decoration="none" x="800" y="570">UNREGISTERED</text><text fill="#eeeeee" stroke="none" font-family="Arial" font-size="24px" font-style="normal" font-weight="normal" text-decoration="none" x="800" y="600">UNREGISTERED</text><text fill="#eeeeee" stroke="none" font-family="Arial" font-size="24px" font-style="normal" font-weight="normal" text-decoration="none" x="800" y="630">UNREGISTERED</text><text fill="#eeeeee" stroke="none" font-family="Arial" font-size="24px" font-style="normal" font-weight="normal" text-decoration="none" x="800" y="660">UNREGISTERED</text><text fill="#eeeeee" stroke="none" font-family="Arial" font-size="24px" font-style="normal" font-weight="normal" text-decoration="none" x="800" y="690">UNREGISTERED</text><text fill="#eeeeee" stroke="none" font-family="Arial" font-size="24px" font-style="normal" font-weight="normal" text-decoration="none" x="800" y="720">UNREGISTERED</text><text fill="#eeeeee" stroke="none" font-family="Arial" font-size="24px" font-style="normal" font-weight="normal" text-decoration="none" x="800" y="750">UNREGISTERED</text><text fill="#eeeeee" stroke="none" font-family="Arial" font-size="24px" font-style="normal" font-weight="normal" text-decoration="none" x="800" y="780">UNREGISTERED</text><text fill="#eeeeee" stroke="none" font-family="Arial" font-size="24px" font-style="normal" font-weight="normal" text-decoration="none" x="800" y="810">UNREGISTERED</text><g transform="translate(-150,-94) scale(1,1)"><path fill="#ffffff" stroke="none" d="M 408.40935031960225 321.68 C 408.40935031960225 316.886167936 412.29519264454774 313 417.088623046875 313 C 421.88205344920226 313 425.76789577414775 316.886167936 425.76789577414775 321.68 C 425.76789577414775 326.473832064 421.88205344920226 330.36 417.088623046875 330.36 C 412.29519264454774 330.36 408.40935031960225 326.473832064 408.40935031960225 321.68 Z"/></g><g transform="translate(-150,-94) scale(1,1)"><path fill="none" stroke="#000000" d="M 408.40935031960225 321.68 C 408.40935031960225 316.886167936 412.29519264454774 313 417.088623046875 313 C 421.88205344920226 313 425.76789577414775 316.886167936 425.76789577414775 321.68 C 425.76789577414775 326.473832064 421.88205344920226 330.36 417.088623046875 330.36 C 412.29519264454774 330.36 408.40935031960225 326.473832064 408.40935031960225 321.68 Z" stroke-miterlimit="10"/></g><g transform="translate(-150,-94) scale(1,1)"><path fill="none" stroke="#000000" d="M 417.088623046875 330.36 L 417.088623046875 347.64" stroke-miterlimit="10"/></g><g transform="translate(-150,-94) scale(1,1)"><path fill="none" stroke="#000000" d="M 407.89880486505683 336.84 L 426.27844122869317 336.84" stroke-miterlimit="10"/></g><g transform="translate(-150,-94) scale(1,1)"><path fill="none" stroke="#000000" d="M 417.088623046875 347.64 L 404.32498668323865 365" stroke-miterlimit="10"/></g><g transform="translate(-150,-94) scale(1,1)"><path fill="none" stroke="#000000" d="M 417.088623046875 347.64 L 429.85225941051135 365" stroke-miterlimit="10"/></g><g transform="translate(-150,-94) scale(1,1)"><g><path fill="none" stroke="none"/><text fill="#000000" stroke="none" font-family="Arial" font-size="13px" font-style="normal" font-weight="bold" text-decoration="none" x="397.588623046875" y="385.5">管理员</text></g></g><g transform="translate(-150,-94) scale(1,1)"><path fill="#C0C0C0" stroke="none" d="M 495 264 C 495 254.6111584 517.6096176 247 545.5 247 C 573.3903824 247 596 254.6111584 596 264 C 596 273.3888416 573.3903824 281 545.5 281 C 517.6096176 281 495 273.3888416 495 264 Z" opacity="0.2"/></g><g transform="translate(-150,-94) scale(1,1)"><path fill="#ffffff" stroke="none" d="M 488 257 C 488 247.6111584 510.6096176 240 538.5 240 C 566.3903824 240 589 247.6111584 589 257 C 589 266.3888416 566.3903824 274 538.5 274 C 510.6096176 274 488 266.3888416 488 257 Z"/></g><g transform="translate(-150,-94) scale(1,1)"><path fill="none" stroke="#000000" d="M 488 257 C 488 247.6111584 510.6096176 240 538.5 240 C 566.3903824 240 589 247.6111584 589 257 C 589 266.3888416 566.3903824 274 538.5 274 C 510.6096176 274 488 266.3888416 488 257 Z" stroke-miterlimit="10"/></g><g transform="translate(-150,-94) scale(1,1)"><g><path fill="none" stroke="none"/><text fill="#000000" stroke="none" font-family="Arial" font-size="13px" font-style="normal" font-weight="bold" text-decoration="none" x="512.5" y="264">用户管理</text></g></g><g transform="translate(-150,-94) scale(1,1)"><path fill="none" stroke="#000000" d="M 443 331 L 515 275" stroke-miterlimit="10"/></g><g transform="translate(-150,-94) scale(1,1)"><path fill="none" stroke="#000000" d="M 509.56246398039013 284.56207101183867 L 515 275 L 504.39367615292934 277.9164866622462" stroke-miterlimit="10"/></g><g transform="translate(-150,-94) scale(1,1)"><path fill="#C0C0C0" stroke="none" d="M 567 304 C 567 294.6111584 589.6096176 287 617.5 287 C 645.3903824 287 668 294.6111584 668 304 C 668 313.3888416 645.3903824 321 617.5 321 C 589.6096176 321 567 313.3888416 567 304 Z" opacity="0.2"/></g><g transform="translate(-150,-94) scale(1,1)"><path fill="#ffffff" stroke="none" d="M 560 297 C 560 287.6111584 582.6096176 280 610.5 280 C 638.3903824 280 661 287.6111584 661 297 C 661 306.3888416 638.3903824 314 610.5 314 C 582.6096176 314 560 306.3888416 560 297 Z"/></g><g transform="translate(-150,-94) scale(1,1)"><path fill="none" stroke="#000000" d="M 560 297 C 560 287.6111584 582.6096176 280 610.5 280 C 638.3903824 280 661 287.6111584 661 297 C 661 306.3888416 638.3903824 314 610.5 314 C 582.6096176 314 560 306.3888416 560 297 Z" stroke-miterlimit="10"/></g><g transform="translate(-150,-94) scale(1,1)"><g><path fill="none" stroke="none"/><text fill="#000000" stroke="none" font-family="Arial" font-size="13px" font-style="normal" font-weight="bold" text-decoration="none" x="584.5" y="304">组织管理</text></g></g><g transform="translate(-150,-94) scale(1,1)"><path fill="none" stroke="#000000" d="M 443 344 L 559 311" stroke-miterlimit="10"/></g><g transform="translate(-150,-94) scale(1,1)"><path fill="none" stroke="#000000" d="M 550.3770040005568 317.82963688592497 L 559 311 L 548.0733384995699 309.7319036097286" stroke-miterlimit="10"/></g><g transform="translate(-150,-94) scale(1,1)"><path fill="#ffffff" stroke="none" d="M 500.32072727272725 401.68 C 500.32072727272725 396.886167936 504.20656959767274 393 509 393 C 513.7934304023273 393 517.6792727272727 396.886167936 517.6792727272727 401.68 C 517.6792727272727 406.473832064 513.7934304023273 410.36 509 410.36 C 504.20656959767274 410.36 500.32072727272725 406.473832064 500.32072727272725 401.68 Z"/></g><g transform="translate(-150,-94) scale(1,1)"><path fill="none" stroke="#000000" d="M 500.32072727272725 401.68 C 500.32072727272725 396.886167936 504.20656959767274 393 509 393 C 513.7934304023273 393 517.6792727272727 396.886167936 517.6792727272727 401.68 C 517.6792727272727 406.473832064 513.7934304023273 410.36 509 410.36 C 504.20656959767274 410.36 500.32072727272725 406.473832064 500.32072727272725 401.68 Z" stroke-miterlimit="10"/></g><g transform="translate(-150,-94) scale(1,1)"><path fill="none" stroke="#000000" d="M 509 410.36 L 509 427.64" stroke-miterlimit="10"/></g><g transform="translate(-150,-94) scale(1,1)"><path fill="none" stroke="#000000" d="M 499.81018181818183 416.84 L 518.1898181818182 416.84" stroke-miterlimit="10"/></g><g transform="translate(-150,-94) scale(1,1)"><path fill="none" stroke="#000000" d="M 509 427.64 L 496.23636363636365 445" stroke-miterlimit="10"/></g><g transform="translate(-150,-94) scale(1,1)"><path fill="none" stroke="#000000" d="M 509 427.64 L 521.7636363636364 445" stroke-miterlimit="10"/></g><g transform="translate(-150,-94) scale(1,1)"><g><path fill="none" stroke="none"/><text fill="#000000" stroke="none" font-family="Arial" font-size="13px" font-style="normal" font-weight="bold" text-decoration="none" x="476.5" y="465.5">组织管理员</text></g></g><g transform="translate(-150,-94) scale(1,1)"><path fill="none" stroke="#000000" d="M 539 391 L 596 315" stroke-miterlimit="10"/></g><g transform="translate(-150,-94) scale(1,1)"><path fill="none" stroke="#000000" d="M 593.2700092902382 325.6558505397089 L 596 315 L 586.5347808806127 320.60442923248974" stroke-miterlimit="10"/></g><g transform="translate(-150,-94) scale(1,1)"><path fill="#C0C0C0" stroke="none" d="M 615 368 C 615 358.6111584 638.505048 351 667.5 351 C 696.494952 351 720 358.6111584 720 368 C 720 377.3888416 696.494952 385 667.5 385 C 638.505048 385 615 377.3888416 615 368 Z" opacity="0.2"/></g><g transform="translate(-150,-94) scale(1,1)"><path fill="#ffffff" stroke="none" d="M 608 361 C 608 351.6111584 631.505048 344 660.5 344 C 689.494952 344 713 351.6111584 713 361 C 713 370.3888416 689.494952 378 660.5 378 C 631.505048 378 608 370.3888416 608 361 Z"/></g><g transform="translate(-150,-94) scale(1,1)"><path fill="none" stroke="#000000" d="M 608 361 C 608 351.6111584 631.505048 344 660.5 344 C 689.494952 344 713 351.6111584 713 361 C 713 370.3888416 689.494952 378 660.5 378 C 631.505048 378 608 370.3888416 608 361 Z" stroke-miterlimit="10"/></g><g transform="translate(-150,-94) scale(1,1)"><g><path fill="none" stroke="none"/><text fill="#000000" stroke="none" font-family="Arial" font-size="13px" font-style="normal" font-weight="bold" text-decoration="none" x="628" y="368">子组织管理</text></g></g><g transform="translate(-150,-94) scale(1,1)"><path fill="none" stroke="#000000" d="M 547 413 L 621 379" stroke-miterlimit="10"/></g><g transform="translate(-150,-94) scale(1,1)"><path fill="none" stroke="#000000" d="M 613.5228870694312 387.0680098056163 L 621 379 L 610.0079382988663 379.41782718732804" stroke-miterlimit="10"/></g><g transform="translate(-150,-94) scale(1,1)"><path fill="#C0C0C0" stroke="none" d="M 599 424 C 599 414.6111584 626.5344848 407 660.5 407 C 694.4655152 407 722 414.6111584 722 424 C 722 433.3888416 694.4655152 441 660.5 441 C 626.5344848 441 599 433.3888416 599 424 Z" opacity="0.2"/></g><g transform="translate(-150,-94) scale(1,1)"><path fill="#ffffff" stroke="none" d="M 592 417 C 592 407.6111584 619.5344848 400 653.5 400 C 687.4655152 400 715 407.6111584 715 417 C 715 426.3888416 687.4655152 434 653.5 434 C 619.5344848 434 592 426.3888416 592 417 Z"/></g><g transform="translate(-150,-94) scale(1,1)"><path fill="none" stroke="#000000" d="M 592 417 C 592 407.6111584 619.5344848 400 653.5 400 C 687.4655152 400 715 407.6111584 715 417 C 715 426.3888416 687.4655152 434 653.5 434 C 619.5344848 434 592 426.3888416 592 417 Z" stroke-miterlimit="10"/></g><g transform="translate(-150,-94) scale(1,1)"><g><path fill="none" stroke="none"/><text fill="#000000" stroke="none" font-family="Arial" font-size="13px" font-style="normal" font-weight="bold" text-decoration="none" x="614.5" y="424">组织成员管理</text></g></g><g transform="translate(-150,-94) scale(1,1)"><path fill="none" stroke="#000000" d="M 547 427 L 591 423" stroke-miterlimit="10"/></g><g transform="translate(-150,-94) scale(1,1)"><path fill="none" stroke="#000000" d="M 581.260172980272 428.11231548574403 L 591 423 L 580.4979493192318 419.72785521430103" stroke-miterlimit="10"/></g><g transform="translate(-150,-94) scale(1,1)"><path fill="#C0C0C0" stroke="none" d="M 407 232 C 407 222.6111584 429.6096176 215 457.5 215 C 485.3903824 215 508 222.6111584 508 232 C 508 241.3888416 485.3903824 249 457.5 249 C 429.6096176 249 407 241.3888416 407 232 Z" opacity="0.2"/></g><g transform="translate(-150,-94) scale(1,1)"><path fill="#ffffff" stroke="none" d="M 400 225 C 400 215.6111584 422.6096176 208 450.5 208 C 478.3903824 208 501 215.6111584 501 225 C 501 234.3888416 478.3903824 242 450.5 242 C 422.6096176 242 400 234.3888416 400 225 Z"/></g><g transform="translate(-150,-94) scale(1,1)"><path fill="none" stroke="#000000" d="M 400 225 C 400 215.6111584 422.6096176 208 450.5 208 C 478.3903824 208 501 215.6111584 501 225 C 501 234.3888416 478.3903824 242 450.5 242 C 422.6096176 242 400 234.3888416 400 225 Z" stroke-miterlimit="10"/></g><g transform="translate(-150,-94) scale(1,1)"><g><path fill="none" stroke="none"/><text fill="#000000" stroke="none" font-family="Arial" font-size="13px" font-style="normal" font-weight="bold" text-decoration="none" x="424.5" y="232">权限管理</text></g></g><g transform="translate(-150,-94) scale(1,1)"><path fill="#C0C0C0" stroke="none" d="M 279 248 C 279 238.6111584 301.6096176 231 329.5 231 C 357.3903824 231 380 238.6111584 380 248 C 380 257.3888416 357.3903824 265 329.5 265 C 301.6096176 265 279 257.3888416 279 248 Z" opacity="0.2"/></g><g transform="translate(-150,-94) scale(1,1)"><path fill="#ffffff" stroke="none" d="M 272 241 C 272 231.6111584 294.6096176 224 322.5 224 C 350.3903824 224 373 231.6111584 373 241 C 373 250.3888416 350.3903824 258 322.5 258 C 294.6096176 258 272 250.3888416 272 241 Z"/></g><g transform="translate(-150,-94) scale(1,1)"><path fill="none" stroke="#000000" d="M 272 241 C 272 231.6111584 294.6096176 224 322.5 224 C 350.3903824 224 373 231.6111584 373 241 C 373 250.3888416 350.3903824 258 322.5 258 C 294.6096176 258 272 250.3888416 272 241 Z" stroke-miterlimit="10"/></g><g transform="translate(-150,-94) scale(1,1)"><g><path fill="none" stroke="none"/><text fill="#000000" stroke="none" font-family="Arial" font-size="13px" font-style="normal" font-weight="bold" text-decoration="none" x="296.5" y="248">角色管理</text></g></g><g transform="translate(-150,-94) scale(1,1)"><path fill="none" stroke="#000000" d="M 427 311 L 445 243" stroke-miterlimit="10"/></g><g transform="translate(-150,-94) scale(1,1)"><path fill="none" stroke="#000000" d="M 446.46880993253717 253.9014951902058 L 445 243 L 438.33008428950416 251.74712663763825" stroke-miterlimit="10"/></g><g transform="translate(-150,-94) scale(1,1)"><path fill="none" stroke="#000000" d="M 391 321 L 338 259" stroke-miterlimit="10"/></g><g transform="translate(-150,-94) scale(1,1)"><path fill="none" stroke="#000000" d="M 347.80325884374884 263.989600789889 L 338 259 L 341.40377025219755 269.46013136008605" stroke-miterlimit="10"/></g><g transform="translate(-150,-94) scale(1,1)"><path fill="#C0C0C0" stroke="none" d="M 623 496 C 623 486.6111584 645.6096176 479 673.5 479 C 701.3903824 479 724 486.6111584 724 496 C 724 505.3888416 701.3903824 513 673.5 513 C 645.6096176 513 623 505.3888416 623 496 Z" opacity="0.2"/></g><g transform="translate(-150,-94) scale(1,1)"><path fill="#ffffff" stroke="none" d="M 616 489 C 616 479.6111584 638.6096176 472 666.5 472 C 694.3903824 472 717 479.6111584 717 489 C 717 498.3888416 694.3903824 506 666.5 506 C 638.6096176 506 616 498.3888416 616 489 Z"/></g><g transform="translate(-150,-94) scale(1,1)"><path fill="none" stroke="#000000" d="M 616 489 C 616 479.6111584 638.6096176 472 666.5 472 C 694.3903824 472 717 479.6111584 717 489 C 717 498.3888416 694.3903824 506 666.5 506 C 638.6096176 506 616 498.3888416 616 489 Z" stroke-miterlimit="10"/></g><g transform="translate(-150,-94) scale(1,1)"><g><path fill="none" stroke="none"/><text fill="#000000" stroke="none" font-family="Arial" font-size="13px" font-style="normal" font-weight="bold" text-decoration="none" x="640.5" y="496">数据统计</text></g></g><g transform="translate(-150,-94) scale(1,1)"><path fill="none" stroke="#000000" d="M 547 445 L 617 471" stroke-miterlimit="10"/></g><g transform="translate(-150,-94) scale(1,1)"><path fill="none" stroke="#000000" d="M 606.0075543784728 471.407601837297 L 617 471 L 608.938949136017 463.5153851823706" stroke-miterlimit="10"/></g><g transform="translate(-150,-94) scale(1,1)"><path fill="#ffffff" stroke="none" d="M 397.82072727272725 585.6800000000001 C 397.82072727272725 580.8861679360001 401.70656959767274 577 406.5 577 C 411.29343040232726 577 415.17927272727275 580.8861679360001 415.17927272727275 585.6800000000001 C 415.17927272727275 590.473832064 411.29343040232726 594.36 406.5 594.36 C 401.70656959767274 594.36 397.82072727272725 590.473832064 397.82072727272725 585.6800000000001 Z"/></g><g transform="translate(-150,-94) scale(1,1)"><path fill="none" stroke="#000000" d="M 397.82072727272725 585.6800000000001 C 397.82072727272725 580.8861679360001 401.70656959767274 577 406.5 577 C 411.29343040232726 577 415.17927272727275 580.8861679360001 415.17927272727275 585.6800000000001 C 415.17927272727275 590.473832064 411.29343040232726 594.36 406.5 594.36 C 401.70656959767274 594.36 397.82072727272725 590.473832064 397.82072727272725 585.6800000000001 Z" stroke-miterlimit="10"/></g><g transform="translate(-150,-94) scale(1,1)"><path fill="none" stroke="#000000" d="M 406.5 594.36 L 406.5 611.64" stroke-miterlimit="10"/></g><g transform="translate(-150,-94) scale(1,1)"><path fill="none" stroke="#000000" d="M 397.31018181818183 600.84 L 415.68981818181817 600.84" stroke-miterlimit="10"/></g><g transform="translate(-150,-94) scale(1,1)"><path fill="none" stroke="#000000" d="M 406.5 611.64 L 393.73636363636365 629" stroke-miterlimit="10"/></g><g transform="translate(-150,-94) scale(1,1)"><path fill="none" stroke="#000000" d="M 406.5 611.64 L 419.26363636363635 629" stroke-miterlimit="10"/></g><g transform="translate(-150,-94) scale(1,1)"><g><path fill="none" stroke="none"/><text fill="#000000" stroke="none" font-family="Arial" font-size="13px" font-style="normal" font-weight="bold" text-decoration="none" x="380.5" y="649.5">普通用户</text></g></g><g transform="translate(-150,-94) scale(1,1)"><path fill="#C0C0C0" stroke="none" d="M 527 632 C 527 622.6111584 549.6096176 615 577.5 615 C 605.3903824 615 628 622.6111584 628 632 C 628 641.3888416 605.3903824 649 577.5 649 C 549.6096176 649 527 641.3888416 527 632 Z" opacity="0.2"/></g><g transform="translate(-150,-94) scale(1,1)"><path fill="#ffffff" stroke="none" d="M 520 625 C 520 615.6111584 542.6096176 608 570.5 608 C 598.3903824 608 621 615.6111584 621 625 C 621 634.3888416 598.3903824 642 570.5 642 C 542.6096176 642 520 634.3888416 520 625 Z"/></g><g transform="translate(-150,-94) scale(1,1)"><path fill="none" stroke="#000000" d="M 520 625 C 520 615.6111584 542.6096176 608 570.5 608 C 598.3903824 608 621 615.6111584 621 625 C 621 634.3888416 598.3903824 642 570.5 642 C 542.6096176 642 520 634.3888416 520 625 Z" stroke-miterlimit="10"/></g><g transform="translate(-150,-94) scale(1,1)"><g><path fill="none" stroke="none"/><text fill="#000000" stroke="none" font-family="Arial" font-size="13px" font-style="normal" font-weight="bold" text-decoration="none" x="557.5" y="632">考勤</text></g></g><g transform="translate(-150,-94) scale(1,1)"><path fill="none" stroke="#000000" d="M 438 617 L 519 622" stroke-miterlimit="10"/></g><g transform="translate(-150,-94) scale(1,1)"><path fill="none" stroke="#000000" d="M 508.59727876065193 625.5753868065451 L 519 622 L 509.1159850125907 617.1723455251366" stroke-miterlimit="10"/></g><g transform="translate(-150,-94) scale(1,1)"><path fill="none" stroke="#000000" d="M 522 472 L 564 607" stroke-miterlimit="10"/></g><g transform="translate(-150,-94) scale(1,1)"><path fill="none" stroke="#000000" d="M 556.961522660066 598.5466079745918 L 564 607 L 565.0004957688992 596.0455941185104" stroke-miterlimit="10"/></g><g transform="translate(-150,-94) scale(1,1)"><path fill="none" stroke="#000000" d="M 486 472 L 428 575" stroke-miterlimit="10"/></g><g transform="translate(-150,-94) scale(1,1)"><path fill="#FFFFFF" stroke="none" d="M 430.6369711851994 553.158608492854 L 428 575 L 445.3088162521012 561.4204241615948"/></g><g transform="translate(-150,-94) scale(1,1)"><path fill="none" stroke="#000000" d="M 430.6369711851994 553.158608492854 L 428 575 L 445.3088162521012 561.4204241615948 L 430.6369711851994 553.158608492854" stroke-miterlimit="10"/></g><g transform="translate(-150,-94) scale(1,1)"><path fill="#ffffff" stroke="none" d="M 304.40935031960225 465.68 C 304.40935031960225 460.886167936 308.29519264454774 457 313.088623046875 457 C 317.88205344920226 457 321.76789577414775 460.886167936 321.76789577414775 465.68 C 321.76789577414775 470.473832064 317.88205344920226 474.36 313.088623046875 474.36 C 308.29519264454774 474.36 304.40935031960225 470.473832064 304.40935031960225 465.68 Z"/></g><g transform="translate(-150,-94) scale(1,1)"><path fill="none" stroke="#000000" d="M 304.40935031960225 465.68 C 304.40935031960225 460.886167936 308.29519264454774 457 313.088623046875 457 C 317.88205344920226 457 321.76789577414775 460.886167936 321.76789577414775 465.68 C 321.76789577414775 470.473832064 317.88205344920226 474.36 313.088623046875 474.36 C 308.29519264454774 474.36 304.40935031960225 470.473832064 304.40935031960225 465.68 Z" stroke-miterlimit="10"/></g><g transform="translate(-150,-94) scale(1,1)"><path fill="none" stroke="#000000" d="M 313.088623046875 474.36 L 313.088623046875 491.64" stroke-miterlimit="10"/></g><g transform="translate(-150,-94) scale(1,1)"><path fill="none" stroke="#000000" d="M 303.89880486505683 480.84 L 322.27844122869317 480.84" stroke-miterlimit="10"/></g><g transform="translate(-150,-94) scale(1,1)"><path fill="none" stroke="#000000" d="M 313.088623046875 491.64 L 300.32498668323865 509" stroke-miterlimit="10"/></g><g transform="translate(-150,-94) scale(1,1)"><path fill="none" stroke="#000000" d="M 313.088623046875 491.64 L 325.85225941051135 509" stroke-miterlimit="10"/></g><g transform="translate(-150,-94) scale(1,1)"><g><path fill="none" stroke="none"/><text fill="#000000" stroke="none" font-family="Arial" font-size="13px" font-style="normal" font-weight="bold" text-decoration="none" x="300.088623046875" y="529.5">用户</text></g></g><g transform="translate(-150,-94) scale(1,1)"><path fill="none" stroke="#000000" d="M 375 575 L 339 529" stroke-miterlimit="10"/></g><g transform="translate(-150,-94) scale(1,1)"><path fill="#FFFFFF" stroke="none" d="M 358.1567135199835 539.8175934067278 L 339 529 L 344.89664838121223 550.1950356892445"/></g><g transform="translate(-150,-94) scale(1,1)"><path fill="none" stroke="#000000" d="M 358.1567135199835 539.8175934067278 L 339 529 L 344.89664838121223 550.1950356892445 L 358.1567135199835 539.8175934067278" stroke-miterlimit="10"/></g><g transform="translate(-150,-94) scale(1,1)"><path fill="none" stroke="#000000" d="M 391 387 L 339 459" stroke-miterlimit="10"/></g><g transform="translate(-150,-94) scale(1,1)"><path fill="#FFFFFF" stroke="none" d="M 344.07516304909575 437.59339541110984 L 339 459 L 357.7254374746263 447.4519269406597"/></g><g transform="translate(-150,-94) scale(1,1)"><path fill="none" stroke="#000000" d="M 344.07516304909575 437.59339541110984 L 339 459 L 357.7254374746263 447.4519269406597 L 344.07516304909575 437.59339541110984" stroke-miterlimit="10"/></g><g transform="translate(-150,-94) scale(1,1)"><path fill="#C0C0C0" stroke="none" d="M 831 264 C 831 254.6111584 854.505048 247 883.5 247 C 912.494952 247 936 254.6111584 936 264 C 936 273.3888416 912.494952 281 883.5 281 C 854.505048 281 831 273.3888416 831 264 Z" opacity="0.2"/></g><g transform="translate(-150,-94) scale(1,1)"><path fill="#ffffff" stroke="none" d="M 824 257 C 824 247.6111584 847.505048 240 876.5 240 C 905.494952 240 929 247.6111584 929 257 C 929 266.3888416 905.494952 274 876.5 274 C 847.505048 274 824 266.3888416 824 257 Z"/></g><g transform="translate(-150,-94) scale(1,1)"><path fill="none" stroke="#000000" d="M 824 257 C 824 247.6111584 847.505048 240 876.5 240 C 905.494952 240 929 247.6111584 929 257 C 929 266.3888416 905.494952 274 876.5 274 C 847.505048 274 824 266.3888416 824 257 Z" stroke-miterlimit="10"/></g><g transform="translate(-150,-94) scale(1,1)"><g><path fill="none" stroke="none"/><text fill="#000000" stroke="none" font-family="Arial" font-size="13px" font-style="normal" font-weight="bold" text-decoration="none" x="844" y="264">删除子组织</text></g></g><g transform="translate(-150,-94) scale(1,1)"><path fill="#C0C0C0" stroke="none" d="M 879 368 C 879 358.6111584 914.817216 351 959 351 C 1003.182784 351 1039 358.6111584 1039 368 C 1039 377.3888416 1003.182784 385 959 385 C 914.817216 385 879 377.3888416 879 368 Z" opacity="0.2"/></g><g transform="translate(-150,-94) scale(1,1)"><path fill="#ffffff" stroke="none" d="M 872 361 C 872 351.6111584 907.817216 344 952 344 C 996.182784 344 1032 351.6111584 1032 361 C 1032 370.3888416 996.182784 378 952 378 C 907.817216 378 872 370.3888416 872 361 Z"/></g><g transform="translate(-150,-94) scale(1,1)"><path fill="none" stroke="#000000" d="M 872 361 C 872 351.6111584 907.817216 344 952 344 C 996.182784 344 1032 351.6111584 1032 361 C 1032 370.3888416 996.182784 378 952 378 C 907.817216 378 872 370.3888416 872 361 Z" stroke-miterlimit="10"/></g><g transform="translate(-150,-94) scale(1,1)"><g><path fill="none" stroke="none"/><text fill="#000000" stroke="none" font-family="Arial" font-size="13px" font-style="normal" font-weight="bold" text-decoration="none" x="900" y="368">设置子组织管理员</text></g></g><g transform="translate(-150,-94) scale(1,1)"><path fill="#C0C0C0" stroke="none" d="M 879 312 C 879 302.6111584 902.505048 295 931.5 295 C 960.494952 295 984 302.6111584 984 312 C 984 321.3888416 960.494952 329 931.5 329 C 902.505048 329 879 321.3888416 879 312 Z" opacity="0.2"/></g><g transform="translate(-150,-94) scale(1,1)"><path fill="#ffffff" stroke="none" d="M 872 305 C 872 295.6111584 895.505048 288 924.5 288 C 953.494952 288 977 295.6111584 977 305 C 977 314.3888416 953.494952 322 924.5 322 C 895.505048 322 872 314.3888416 872 305 Z"/></g><g transform="translate(-150,-94) scale(1,1)"><path fill="none" stroke="#000000" d="M 872 305 C 872 295.6111584 895.505048 288 924.5 288 C 953.494952 288 977 295.6111584 977 305 C 977 314.3888416 953.494952 322 924.5 322 C 895.505048 322 872 314.3888416 872 305 Z" stroke-miterlimit="10"/></g><g transform="translate(-150,-94) scale(1,1)"><g><path fill="none" stroke="none"/><text fill="#000000" stroke="none" font-family="Arial" font-size="13px" font-style="normal" font-weight="bold" text-decoration="none" x="892" y="312">创建子组织</text></g></g><g transform="translate(-150,-94) scale(1,1)"><path fill="#C0C0C0" stroke="none" d="M 455 728 C 455 718.6111584 477.6096176 711 505.5 711 C 533.3903824 711 556 718.6111584 556 728 C 556 737.3888416 533.3903824 745 505.5 745 C 477.6096176 745 455 737.3888416 455 728 Z" opacity="0.2"/></g><g transform="translate(-150,-94) scale(1,1)"><path fill="#ffffff" stroke="none" d="M 448 721 C 448 711.6111584 470.6096176 704 498.5 704 C 526.3903824 704 549 711.6111584 549 721 C 549 730.3888416 526.3903824 738 498.5 738 C 470.6096176 738 448 730.3888416 448 721 Z"/></g><g transform="translate(-150,-94) scale(1,1)"><path fill="none" stroke="#000000" d="M 448 721 C 448 711.6111584 470.6096176 704 498.5 704 C 526.3903824 704 549 711.6111584 549 721 C 549 730.3888416 526.3903824 738 498.5 738 C 470.6096176 738 448 730.3888416 448 721 Z" stroke-miterlimit="10"/></g><g transform="translate(-150,-94) scale(1,1)"><g><path fill="none" stroke="none"/><text fill="#000000" stroke="none" font-family="Arial" font-size="13px" font-style="normal" font-weight="bold" text-decoration="none" x="485.5" y="728">请假</text></g></g><g transform="translate(-150,-94) scale(1,1)"><path fill="none" stroke="#000000" d="M 438 652 L 482 703" stroke-miterlimit="10"/></g><g transform="translate(-150,-94) scale(1,1)"><path fill="none" stroke="#000000" d="M 472.1741381119616 698.0550593373434 L 482 703 L 478.54866750309515 692.555465352836" stroke-miterlimit="10"/></g><g transform="translate(-150,-94) scale(1,1)"><path fill="none" stroke="#000000" d="M 507 472 L 499 703" stroke-miterlimit="10"/></g><g transform="translate(-150,-94) scale(1,1)"><path fill="none" stroke="#000000" d="M 495.14474761090503 692.6977172909894 L 499 703 L 503.5587388577276 692.989110927243" stroke-miterlimit="10"/></g><g transform="translate(-150,-94) scale(1,1)"><path fill="#C0C0C0" stroke="none" d="M 623 192 C 623 182.6111584 645.6096176 175 673.5 175 C 701.3903824 175 724 182.6111584 724 192 C 724 201.3888416 701.3903824 209 673.5 209 C 645.6096176 209 623 201.3888416 623 192 Z" opacity="0.2"/></g><g transform="translate(-150,-94) scale(1,1)"><path fill="#ffffff" stroke="none" d="M 616 185 C 616 175.6111584 638.6096176 168 666.5 168 C 694.3903824 168 717 175.6111584 717 185 C 717 194.3888416 694.3903824 202 666.5 202 C 638.6096176 202 616 194.3888416 616 185 Z"/></g><g transform="translate(-150,-94) scale(1,1)"><path fill="none" stroke="#000000" d="M 616 185 C 616 175.6111584 638.6096176 168 666.5 168 C 694.3903824 168 717 175.6111584 717 185 C 717 194.3888416 694.3903824 202 666.5 202 C 638.6096176 202 616 194.3888416 616 185 Z" stroke-miterlimit="10"/></g><g transform="translate(-150,-94) scale(1,1)"><g><path fill="none" stroke="none"/><text fill="#000000" stroke="none" font-family="Arial" font-size="13px" font-style="normal" font-weight="bold" text-decoration="none" x="640.5" y="192">解散组织</text></g></g><g transform="translate(-150,-94) scale(1,1)"><path fill="#C0C0C0" stroke="none" d="M 695 232 C 695 222.6111584 722.5344848 215 756.5 215 C 790.4655152 215 818 222.6111584 818 232 C 818 241.3888416 790.4655152 249 756.5 249 C 722.5344848 249 695 241.3888416 695 232 Z" opacity="0.2"/></g><g transform="translate(-150,-94) scale(1,1)"><path fill="#ffffff" stroke="none" d="M 688 225 C 688 215.6111584 715.5344848 208 749.5 208 C 783.4655152 208 811 215.6111584 811 225 C 811 234.3888416 783.4655152 242 749.5 242 C 715.5344848 242 688 234.3888416 688 225 Z"/></g><g transform="translate(-150,-94) scale(1,1)"><path fill="none" stroke="#000000" d="M 688 225 C 688 215.6111584 715.5344848 208 749.5 208 C 783.4655152 208 811 215.6111584 811 225 C 811 234.3888416 783.4655152 242 749.5 242 C 715.5344848 242 688 234.3888416 688 225 Z" stroke-miterlimit="10"/></g><g transform="translate(-150,-94) scale(1,1)"><g><path fill="none" stroke="none"/><text fill="#000000" stroke="none" font-family="Arial" font-size="13px" font-style="normal" font-weight="bold" text-decoration="none" x="710.5" y="232">设置组织名称</text></g></g><g transform="translate(-150,-94) scale(1,1)"><path fill="#C0C0C0" stroke="none" d="M 615 568 C 615 558.6111584 637.6096176 551 665.5 551 C 693.3903824 551 716 558.6111584 716 568 C 716 577.3888416 693.3903824 585 665.5 585 C 637.6096176 585 615 577.3888416 615 568 Z" opacity="0.2"/></g><g transform="translate(-150,-94) scale(1,1)"><path fill="#ffffff" stroke="none" d="M 608 561 C 608 551.6111584 630.6096176 544 658.5 544 C 686.3903824 544 709 551.6111584 709 561 C 709 570.3888416 686.3903824 578 658.5 578 C 630.6096176 578 608 570.3888416 608 561 Z"/></g><g transform="translate(-150,-94) scale(1,1)"><path fill="none" stroke="#000000" d="M 608 561 C 608 551.6111584 630.6096176 544 658.5 544 C 686.3903824 544 709 551.6111584 709 561 C 709 570.3888416 686.3903824 578 658.5 578 C 630.6096176 578 608 570.3888416 608 561 Z" stroke-miterlimit="10"/></g><g transform="translate(-150,-94) scale(1,1)"><g><path fill="none" stroke="none"/><text fill="#000000" stroke="none" font-family="Arial" font-size="13px" font-style="normal" font-weight="bold" text-decoration="none" x="632.5" y="568">考勤管理</text></g></g><g transform="translate(-150,-94) scale(1,1)"><path fill="none" stroke="#000000" d="M 547 464 L 637 543" stroke-miterlimit="10"/></g><g transform="translate(-150,-94) scale(1,1)"><path fill="none" stroke="#000000" d="M 626.5853705761995 539.4594500476751 L 637 543 L 632.1392917913043 533.1321980304671" stroke-miterlimit="10"/></g><g transform="translate(-150,-94) scale(1,1)"><path fill="#C0C0C0" stroke="none" d="M 839 560 C 839 550.6111584 862.505048 543 891.5 543 C 920.494952 543 944 550.6111584 944 560 C 944 569.3888416 920.494952 577 891.5 577 C 862.505048 577 839 569.3888416 839 560 Z" opacity="0.2"/></g><g transform="translate(-150,-94) scale(1,1)"><path fill="#ffffff" stroke="none" d="M 832 553 C 832 543.6111584 855.505048 536 884.5 536 C 913.494952 536 937 543.6111584 937 553 C 937 562.3888416 913.494952 570 884.5 570 C 855.505048 570 832 562.3888416 832 553 Z"/></g><g transform="translate(-150,-94) scale(1,1)"><path fill="none" stroke="#000000" d="M 832 553 C 832 543.6111584 855.505048 536 884.5 536 C 913.494952 536 937 543.6111584 937 553 C 937 562.3888416 913.494952 570 884.5 570 C 855.505048 570 832 562.3888416 832 553 Z" stroke-miterlimit="10"/></g><g transform="translate(-150,-94) scale(1,1)"><g><path fill="none" stroke="none"/><text fill="#000000" stroke="none" font-family="Arial" font-size="13px" font-style="normal" font-weight="bold" text-decoration="none" x="852" y="560">添加考勤组</text></g></g><g transform="translate(-150,-94) scale(1,1)"><path fill="#C0C0C0" stroke="none" d="M 223 144 C 223 134.6111584 245.6096176 127 273.5 127 C 301.3903824 127 324 134.6111584 324 144 C 324 153.3888416 301.3903824 161 273.5 161 C 245.6096176 161 223 153.3888416 223 144 Z" opacity="0.2"/></g><g transform="translate(-150,-94) scale(1,1)"><path fill="#ffffff" stroke="none" d="M 216 137 C 216 127.6111584 238.6096176 120 266.5 120 C 294.3903824 120 317 127.6111584 317 137 C 317 146.3888416 294.3903824 154 266.5 154 C 238.6096176 154 216 146.3888416 216 137 Z"/></g><g transform="translate(-150,-94) scale(1,1)"><path fill="none" stroke="#000000" d="M 216 137 C 216 127.6111584 238.6096176 120 266.5 120 C 294.3903824 120 317 127.6111584 317 137 C 317 146.3888416 294.3903824 154 266.5 154 C 238.6096176 154 216 146.3888416 216 137 Z" stroke-miterlimit="10"/></g><g transform="translate(-150,-94) scale(1,1)"><g><path fill="none" stroke="none"/><text fill="#000000" stroke="none" font-family="Arial" font-size="13px" font-style="normal" font-weight="bold" text-decoration="none" x="240.5" y="144">添加角色</text></g></g><g transform="translate(-150,-94) scale(1,1)"><path fill="#C0C0C0" stroke="none" d="M 431 128 C 431 118.6111584 453.6096176 111 481.5 111 C 509.3903824 111 532 118.6111584 532 128 C 532 137.3888416 509.3903824 145 481.5 145 C 453.6096176 145 431 137.3888416 431 128 Z" opacity="0.2"/></g><g transform="translate(-150,-94) scale(1,1)"><path fill="#ffffff" stroke="none" d="M 424 121 C 424 111.6111584 446.6096176 104 474.5 104 C 502.3903824 104 525 111.6111584 525 121 C 525 130.3888416 502.3903824 138 474.5 138 C 446.6096176 138 424 130.3888416 424 121 Z"/></g><g transform="translate(-150,-94) scale(1,1)"><path fill="none" stroke="#000000" d="M 424 121 C 424 111.6111584 446.6096176 104 474.5 104 C 502.3903824 104 525 111.6111584 525 121 C 525 130.3888416 502.3903824 138 474.5 138 C 446.6096176 138 424 130.3888416 424 121 Z" stroke-miterlimit="10"/></g><g transform="translate(-150,-94) scale(1,1)"><g><path fill="none" stroke="none"/><text fill="#000000" stroke="none" font-family="Arial" font-size="13px" font-style="normal" font-weight="bold" text-decoration="none" x="448.5" y="128">添加权限</text></g></g><g transform="translate(-150,-94) scale(1,1)"><path fill="#C0C0C0" stroke="none" d="M 223 408 C 223 398.6111584 245.6096176 391 273.5 391 C 301.3903824 391 324 398.6111584 324 408 C 324 417.3888416 301.3903824 425 273.5 425 C 245.6096176 425 223 417.3888416 223 408 Z" opacity="0.2"/></g><g transform="translate(-150,-94) scale(1,1)"><path fill="#ffffff" stroke="none" d="M 216 401 C 216 391.6111584 238.6096176 384 266.5 384 C 294.3903824 384 317 391.6111584 317 401 C 317 410.3888416 294.3903824 418 266.5 418 C 238.6096176 418 216 410.3888416 216 401 Z"/></g><g transform="translate(-150,-94) scale(1,1)"><path fill="none" stroke="#000000" d="M 216 401 C 216 391.6111584 238.6096176 384 266.5 384 C 294.3903824 384 317 391.6111584 317 401 C 317 410.3888416 294.3903824 418 266.5 418 C 238.6096176 418 216 410.3888416 216 401 Z" stroke-miterlimit="10"/></g><g transform="translate(-150,-94) scale(1,1)"><g><path fill="none" stroke="none"/><text fill="#000000" stroke="none" font-family="Arial" font-size="13px" font-style="normal" font-weight="bold" text-decoration="none" x="240.5" y="408">创建组织</text></g></g><g transform="translate(-150,-94) scale(1,1)"><path fill="none" stroke="#000000" d="M 293 455 L 275 419" stroke-miterlimit="10"/></g><g transform="translate(-150,-94) scale(1,1)"><path fill="none" stroke="#000000" d="M 283.3099935049528 426.2072191549614 L 275 419 L 275.77977922099745 429.97232629693906" stroke-miterlimit="10"/></g><g transform="translate(-150,-94) scale(1,1)"><path fill="#C0C0C0" stroke="none" d="M 215 608 C 215 598.6111584 238.505048 591 267.5 591 C 296.494952 591 320 598.6111584 320 608 C 320 617.3888416 296.494952 625 267.5 625 C 238.505048 625 215 617.3888416 215 608 Z" opacity="0.2"/></g><g transform="translate(-150,-94) scale(1,1)"><path fill="#ffffff" stroke="none" d="M 208 601 C 208 591.6111584 231.505048 584 260.5 584 C 289.494952 584 313 591.6111584 313 601 C 313 610.3888416 289.494952 618 260.5 618 C 231.505048 618 208 610.3888416 208 601 Z"/></g><g transform="translate(-150,-94) scale(1,1)"><path fill="none" stroke="#000000" d="M 208 601 C 208 591.6111584 231.505048 584 260.5 584 C 289.494952 584 313 591.6111584 313 601 C 313 610.3888416 289.494952 618 260.5 618 C 231.505048 618 208 610.3888416 208 601 Z" stroke-miterlimit="10"/></g><g transform="translate(-150,-94) scale(1,1)"><g><path fill="none" stroke="none"/><text fill="#000000" stroke="none" font-family="Arial" font-size="13px" font-style="normal" font-weight="bold" text-decoration="none" x="228" y="608">设置用户名</text></g></g><g transform="translate(-150,-94) scale(1,1)"><path fill="#C0C0C0" stroke="none" d="M 295 776 C 295 766.6111584 322.5344848 759 356.5 759 C 390.4655152 759 418 766.6111584 418 776 C 418 785.3888416 390.4655152 793 356.5 793 C 322.5344848 793 295 785.3888416 295 776 Z" opacity="0.2"/></g><g transform="translate(-150,-94) scale(1,1)"><path fill="#ffffff" stroke="none" d="M 288 769 C 288 759.6111584 315.5344848 752 349.5 752 C 383.4655152 752 411 759.6111584 411 769 C 411 778.3888416 383.4655152 786 349.5 786 C 315.5344848 786 288 778.3888416 288 769 Z"/></g><g transform="translate(-150,-94) scale(1,1)"><path fill="none" stroke="#000000" d="M 288 769 C 288 759.6111584 315.5344848 752 349.5 752 C 383.4655152 752 411 759.6111584 411 769 C 411 778.3888416 383.4655152 786 349.5 786 C 315.5344848 786 288 778.3888416 288 769 Z" stroke-miterlimit="10"/></g><g transform="translate(-150,-94) scale(1,1)"><g><path fill="none" stroke="none"/><text fill="#000000" stroke="none" font-family="Arial" font-size="13px" font-style="normal" font-weight="bold" text-decoration="none" x="310.5" y="776">设置基本信息</text></g></g><g transform="translate(-150,-94) scale(1,1)"><path fill="none" stroke="#000000" d="M 293 536 L 269 583" stroke-miterlimit="10"/></g><g transform="translate(-150,-94) scale(1,1)"><path fill="none" stroke="#000000" d="M 269.8727336984482 572.0346757507316 L 269 583 L 277.3707710509097 575.8634607817758" stroke-miterlimit="10"/></g><g transform="translate(-150,-94) scale(1,1)"><path fill="none" stroke="#000000" d="M 318 536 L 347 751" stroke-miterlimit="10"/></g><g transform="translate(-150,-94) scale(1,1)"><path fill="none" stroke="#000000" d="M 341.46978340919355 741.4912301290457 L 347 751 L 349.81326200370455 740.3658306907163" stroke-miterlimit="10"/></g><g transform="translate(-150,-94) scale(1,1)"><path fill="#C0C0C0" stroke="none" d="M 167 848 C 167 838.6111584 190.505048 831 219.5 831 C 248.494952 831 272 838.6111584 272 848 C 272 857.3888416 248.494952 865 219.5 865 C 190.505048 865 167 857.3888416 167 848 Z" opacity="0.2"/></g><g transform="translate(-150,-94) scale(1,1)"><path fill="#ffffff" stroke="none" d="M 160 841 C 160 831.6111584 183.505048 824 212.5 824 C 241.494952 824 265 831.6111584 265 841 C 265 850.3888416 241.494952 858 212.5 858 C 183.505048 858 160 850.3888416 160 841 Z"/></g><g transform="translate(-150,-94) scale(1,1)"><path fill="none" stroke="#000000" d="M 160 841 C 160 831.6111584 183.505048 824 212.5 824 C 241.494952 824 265 831.6111584 265 841 C 265 850.3888416 241.494952 858 212.5 858 C 183.505048 858 160 850.3888416 160 841 Z" stroke-miterlimit="10"/></g><g transform="translate(-150,-94) scale(1,1)"><g><path fill="none" stroke="none"/><text fill="#000000" stroke="none" font-family="Arial" font-size="13px" font-style="normal" font-weight="bold" text-decoration="none" x="180" y="848">添加手机号</text></g></g><g transform="translate(-150,-94) scale(1,1)"><path fill="#C0C0C0" stroke="none" d="M 287 904 C 287 894.6111584 309.6096176 887 337.5 887 C 365.3903824 887 388 894.6111584 388 904 C 388 913.3888416 365.3903824 921 337.5 921 C 309.6096176 921 287 913.3888416 287 904 Z" opacity="0.2"/></g><g transform="translate(-150,-94) scale(1,1)"><path fill="#ffffff" stroke="none" d="M 280 897 C 280 887.6111584 302.6096176 880 330.5 880 C 358.3903824 880 381 887.6111584 381 897 C 381 906.3888416 358.3903824 914 330.5 914 C 302.6096176 914 280 906.3888416 280 897 Z"/></g><g transform="translate(-150,-94) scale(1,1)"><path fill="none" stroke="#000000" d="M 280 897 C 280 887.6111584 302.6096176 880 330.5 880 C 358.3903824 880 381 887.6111584 381 897 C 381 906.3888416 358.3903824 914 330.5 914 C 302.6096176 914 280 906.3888416 280 897 Z" stroke-miterlimit="10"/></g><g transform="translate(-150,-94) scale(1,1)"><g><path fill="none" stroke="none"/><text fill="#000000" stroke="none" font-family="Arial" font-size="13px" font-style="normal" font-weight="bold" text-decoration="none" x="304.5" y="904">设置地址</text></g></g><g transform="translate(-150,-94) scale(1,1)"><path fill="#C0C0C0" stroke="none" d="M 847 616 C 847 606.6111584 870.505048 599 899.5 599 C 928.494952 599 952 606.6111584 952 616 C 952 625.3888416 928.494952 633 899.5 633 C 870.505048 633 847 625.3888416 847 616 Z" opacity="0.2"/></g><g transform="translate(-150,-94) scale(1,1)"><path fill="#ffffff" stroke="none" d="M 840 609 C 840 599.6111584 863.505048 592 892.5 592 C 921.494952 592 945 599.6111584 945 609 C 945 618.3888416 921.494952 626 892.5 626 C 863.505048 626 840 618.3888416 840 609 Z"/></g><g transform="translate(-150,-94) scale(1,1)"><path fill="none" stroke="#000000" d="M 840 609 C 840 599.6111584 863.505048 592 892.5 592 C 921.494952 592 945 599.6111584 945 609 C 945 618.3888416 921.494952 626 892.5 626 C 863.505048 626 840 618.3888416 840 609 Z" stroke-miterlimit="10"/></g><g transform="translate(-150,-94) scale(1,1)"><g><path fill="none" stroke="none"/><text fill="#000000" stroke="none" font-family="Arial" font-size="13px" font-style="normal" font-weight="bold" text-decoration="none" x="860" y="616">删除考勤组</text></g></g><g transform="translate(-150,-94) scale(1,1)"><path fill="#C0C0C0" stroke="none" d="M 831 680 C 831 670.6111584 866.817216 663 911 663 C 955.182784 663 991 670.6111584 991 680 C 991 689.3888416 955.182784 697 911 697 C 866.817216 697 831 689.3888416 831 680 Z" opacity="0.2"/></g><g transform="translate(-150,-94) scale(1,1)"><path fill="#ffffff" stroke="none" d="M 824 673 C 824 663.6111584 859.817216 656 904 656 C 948.182784 656 984 663.6111584 984 673 C 984 682.3888416 948.182784 690 904 690 C 859.817216 690 824 682.3888416 824 673 Z"/></g><g transform="translate(-150,-94) scale(1,1)"><path fill="none" stroke="#000000" d="M 824 673 C 824 663.6111584 859.817216 656 904 656 C 948.182784 656 984 663.6111584 984 673 C 984 682.3888416 948.182784 690 904 690 C 859.817216 690 824 682.3888416 824 673 Z" stroke-miterlimit="10"/></g><g transform="translate(-150,-94) scale(1,1)"><g><path fill="none" stroke="none"/><text fill="#000000" stroke="none" font-family="Arial" font-size="13px" font-style="normal" font-weight="bold" text-decoration="none" x="852" y="680">将成员加入考勤组</text></g></g><g transform="translate(-150,-94) scale(1,1)"><path fill="#C0C0C0" stroke="none" d="M 767 744 C 767 734.6111584 802.817216 727 847 727 C 891.182784 727 927 734.6111584 927 744 C 927 753.3888416 891.182784 761 847 761 C 802.817216 761 767 753.3888416 767 744 Z" opacity="0.2"/></g><g transform="translate(-150,-94) scale(1,1)"><path fill="#ffffff" stroke="none" d="M 760 737 C 760 727.6111584 795.817216 720 840 720 C 884.182784 720 920 727.6111584 920 737 C 920 746.3888416 884.182784 754 840 754 C 795.817216 754 760 746.3888416 760 737 Z"/></g><g transform="translate(-150,-94) scale(1,1)"><path fill="none" stroke="#000000" d="M 760 737 C 760 727.6111584 795.817216 720 840 720 C 884.182784 720 920 727.6111584 920 737 C 920 746.3888416 884.182784 754 840 754 C 795.817216 754 760 746.3888416 760 737 Z" stroke-miterlimit="10"/></g><g transform="translate(-150,-94) scale(1,1)"><g><path fill="none" stroke="none"/><text fill="#000000" stroke="none" font-family="Arial" font-size="13px" font-style="normal" font-weight="bold" text-decoration="none" x="788" y="744">将成员移出考勤组</text></g></g><g transform="translate(-150,-94) scale(1,1)"><path fill="#C0C0C0" stroke="none" d="M 863 424 C 863 414.6111584 898.817216 407 943 407 C 987.182784 407 1023 414.6111584 1023 424 C 1023 433.3888416 987.182784 441 943 441 C 898.817216 441 863 433.3888416 863 424 Z" opacity="0.2"/></g><g transform="translate(-150,-94) scale(1,1)"><path fill="#ffffff" stroke="none" d="M 856 417 C 856 407.6111584 891.817216 400 936 400 C 980.182784 400 1016 407.6111584 1016 417 C 1016 426.3888416 980.182784 434 936 434 C 891.817216 434 856 426.3888416 856 417 Z"/></g><g transform="translate(-150,-94) scale(1,1)"><path fill="none" stroke="#000000" d="M 856 417 C 856 407.6111584 891.817216 400 936 400 C 980.182784 400 1016 407.6111584 1016 417 C 1016 426.3888416 980.182784 434 936 434 C 891.817216 434 856 426.3888416 856 417 Z" stroke-miterlimit="10"/></g><g transform="translate(-150,-94) scale(1,1)"><g><path fill="none" stroke="none"/><text fill="#000000" stroke="none" font-family="Arial" font-size="13px" font-style="normal" font-weight="bold" text-decoration="none" x="884" y="424">邀请用户加入组织</text></g></g><g transform="translate(-150,-94) scale(1,1)"><path fill="#C0C0C0" stroke="none" d="M 871 464 C 871 454.6111584 902.5639216 447 941.5 447 C 980.4360784 447 1012 454.6111584 1012 464 C 1012 473.3888416 980.4360784 481 941.5 481 C 902.5639216 481 871 473.3888416 871 464 Z" opacity="0.2"/></g><g transform="translate(-150,-94) scale(1,1)"><path fill="#ffffff" stroke="none" d="M 864 457 C 864 447.6111584 895.5639216 440 934.5 440 C 973.4360784 440 1005 447.6111584 1005 457 C 1005 466.3888416 973.4360784 474 934.5 474 C 895.5639216 474 864 466.3888416 864 457 Z"/></g><g transform="translate(-150,-94) scale(1,1)"><path fill="none" stroke="#000000" d="M 864 457 C 864 447.6111584 895.5639216 440 934.5 440 C 973.4360784 440 1005 447.6111584 1005 457 C 1005 466.3888416 973.4360784 474 934.5 474 C 895.5639216 474 864 466.3888416 864 457 Z" stroke-miterlimit="10"/></g><g transform="translate(-150,-94) scale(1,1)"><g><path fill="none" stroke="none"/><text fill="#000000" stroke="none" font-family="Arial" font-size="13px" font-style="normal" font-weight="bold" text-decoration="none" x="889" y="464">将用户移出组织</text></g></g><g transform="translate(-150,-94) scale(1,1)"><path fill="#C0C0C0" stroke="none" d="M 767 504 C 767 494.6111584 810.8760896 487 865 487 C 919.1239104 487 963 494.6111584 963 504 C 963 513.3888416 919.1239104 521 865 521 C 810.8760896 521 767 513.3888416 767 504 Z" opacity="0.2"/></g><g transform="translate(-150,-94) scale(1,1)"><path fill="#ffffff" stroke="none" d="M 760 497 C 760 487.6111584 803.8760896 480 858 480 C 912.1239104 480 956 487.6111584 956 497 C 956 506.3888416 912.1239104 514 858 514 C 803.8760896 514 760 506.3888416 760 497 Z"/></g><g transform="translate(-150,-94) scale(1,1)"><path fill="none" stroke="#000000" d="M 760 497 C 760 487.6111584 803.8760896 480 858 480 C 912.1239104 480 956 487.6111584 956 497 C 956 506.3888416 912.1239104 514 858 514 C 803.8760896 514 760 506.3888416 760 497 Z" stroke-miterlimit="10"/></g><g transform="translate(-150,-94) scale(1,1)"><g><path fill="none" stroke="none"/><text fill="#000000" stroke="none" font-family="Arial" font-size="13px" font-style="normal" font-weight="bold" text-decoration="none" x="793" y="504">将组织成员移入子组织</text></g></g><g transform="translate(-150,-94) scale(1,1)"><path fill="#C0C0C0" stroke="none" d="M 327 160 C 327 150.6111584 349.6096176 143 377.5 143 C 405.3903824 143 428 150.6111584 428 160 C 428 169.3888416 405.3903824 177 377.5 177 C 349.6096176 177 327 169.3888416 327 160 Z" opacity="0.2"/></g><g transform="translate(-150,-94) scale(1,1)"><path fill="#ffffff" stroke="none" d="M 320 153 C 320 143.6111584 342.6096176 136 370.5 136 C 398.3903824 136 421 143.6111584 421 153 C 421 162.3888416 398.3903824 170 370.5 170 C 342.6096176 170 320 162.3888416 320 153 Z"/></g><g transform="translate(-150,-94) scale(1,1)"><path fill="none" stroke="#000000" d="M 320 153 C 320 143.6111584 342.6096176 136 370.5 136 C 398.3903824 136 421 143.6111584 421 153 C 421 162.3888416 398.3903824 170 370.5 170 C 342.6096176 170 320 162.3888416 320 153 Z" stroke-miterlimit="10"/></g><g transform="translate(-150,-94) scale(1,1)"><g><path fill="none" stroke="none"/><text fill="#000000" stroke="none" font-family="Arial" font-size="13px" font-style="normal" font-weight="bold" text-decoration="none" x="344.5" y="160">删除角色</text></g></g><g transform="translate(-150,-94) scale(1,1)"><path fill="#C0C0C0" stroke="none" d="M 175 192 C 175 182.6111584 197.6096176 175 225.5 175 C 253.3903824 175 276 182.6111584 276 192 C 276 201.3888416 253.3903824 209 225.5 209 C 197.6096176 209 175 201.3888416 175 192 Z" opacity="0.2"/></g><g transform="translate(-150,-94) scale(1,1)"><path fill="#ffffff" stroke="none" d="M 168 185 C 168 175.6111584 190.6096176 168 218.5 168 C 246.3903824 168 269 175.6111584 269 185 C 269 194.3888416 246.3903824 202 218.5 202 C 190.6096176 202 168 194.3888416 168 185 Z"/></g><g transform="translate(-150,-94) scale(1,1)"><path fill="none" stroke="#000000" d="M 168 185 C 168 175.6111584 190.6096176 168 218.5 168 C 246.3903824 168 269 175.6111584 269 185 C 269 194.3888416 246.3903824 202 218.5 202 C 190.6096176 202 168 194.3888416 168 185 Z" stroke-miterlimit="10"/></g><g transform="translate(-150,-94) scale(1,1)"><g><path fill="none" stroke="none"/><text fill="#000000" stroke="none" font-family="Arial" font-size="13px" font-style="normal" font-weight="bold" text-decoration="none" x="192.5" y="192">角色赋予</text></g></g><g transform="translate(-150,-94) scale(1,1)"><path fill="#C0C0C0" stroke="none" d="M 231 320 C 231 310.6111584 253.6096176 303 281.5 303 C 309.3903824 303 332 310.6111584 332 320 C 332 329.3888416 309.3903824 337 281.5 337 C 253.6096176 337 231 329.3888416 231 320 Z" opacity="0.2"/></g><g transform="translate(-150,-94) scale(1,1)"><path fill="#ffffff" stroke="none" d="M 224 313 C 224 303.6111584 246.6096176 296 274.5 296 C 302.3903824 296 325 303.6111584 325 313 C 325 322.3888416 302.3903824 330 274.5 330 C 246.6096176 330 224 322.3888416 224 313 Z"/></g><g transform="translate(-150,-94) scale(1,1)"><path fill="none" stroke="#000000" d="M 224 313 C 224 303.6111584 246.6096176 296 274.5 296 C 302.3903824 296 325 303.6111584 325 313 C 325 322.3888416 302.3903824 330 274.5 330 C 246.6096176 330 224 322.3888416 224 313 Z" stroke-miterlimit="10"/></g><g transform="translate(-150,-94) scale(1,1)"><g><path fill="none" stroke="none"/><text fill="#000000" stroke="none" font-family="Arial" font-size="13px" font-style="normal" font-weight="bold" text-decoration="none" x="248.5" y="320">注销组织</text></g></g><g transform="translate(-150,-94) scale(1,1)"><path fill="none" stroke="#000000" d="M 268 383 L 272 331" stroke-miterlimit="10" stroke-dasharray="3"/></g><g transform="translate(-150,-94) scale(1,1)"><path fill="none" stroke="#000000" d="M 275.4176769795506 341.4555958253679 L 272 331 L 267.02343985868197 340.80988527760877" stroke-miterlimit="10"/></g><g transform="translate(-150,-94) scale(1,1)"><g><path fill="none" stroke="none"/><text fill="#000000" stroke="none" font-family="Arial" font-size="13px" font-style="normal" font-weight="normal" text-decoration="none" x="212.45384216308594" y="360.5">«include»</text></g></g><g transform="translate(-150,-94) scale(1,1)"><path fill="none" stroke="#000000" d="M 716 417 L 855 417" stroke-miterlimit="10" stroke-dasharray="3"/></g><g transform="translate(-150,-94) scale(1,1)"><path fill="none" stroke="#000000" d="M 844.8373251423759 421.209517756016 L 855 417 L 844.8373251423758 412.790482243984" stroke-miterlimit="10"/></g><g transform="translate(-150,-94) scale(1,1)"><g><path fill="none" stroke="none"/><text fill="#000000" stroke="none" font-family="Arial" font-size="13px" font-style="normal" font-weight="normal" text-decoration="none" x="743.4538421630859" y="411.5">«include»</text></g></g><g transform="translate(-150,-94) scale(1,1)"><path fill="none" stroke="#000000" d="M 716 426 L 863 447" stroke-miterlimit="10" stroke-dasharray="3"/></g><g transform="translate(-150,-94) scale(1,1)"><path fill="none" stroke="#000000" d="M 852.3441494602911 449.7299907097617 L 863 447 L 853.5347808806127 441.39557076751026" stroke-miterlimit="10"/></g><g transform="translate(-150,-94) scale(1,1)"><g><path fill="none" stroke="none"/><text fill="#000000" stroke="none" font-family="Arial" font-size="13px" font-style="normal" font-weight="normal" text-decoration="none" x="765.4538421630859" y="436.5">«include»</text></g></g><g transform="translate(-150,-94) scale(1,1)"><path fill="none" stroke="#000000" d="M 699 435 L 812 479" stroke-miterlimit="10" stroke-dasharray="3"/></g><g transform="translate(-150,-94) scale(1,1)"><path fill="none" stroke="#000000" d="M 801.0025141683157 479.23517096313543 L 812 479 L 804.0573122096417 471.3898941751843" stroke-miterlimit="10"/></g><g transform="translate(-150,-94) scale(1,1)"><g><path fill="none" stroke="none"/><text fill="#000000" stroke="none" font-family="Arial" font-size="13px" font-style="normal" font-weight="normal" text-decoration="none" x="727.4538421630859" y="460.5">«include»</text></g></g><g transform="translate(-150,-94) scale(1,1)"><path fill="none" stroke="#000000" d="M 710 559 L 831 555" stroke-miterlimit="10" stroke-dasharray="3"/></g><g transform="translate(-150,-94) scale(1,1)"><path fill="none" stroke="#000000" d="M 820.9819552269454 559.5429922875867 L 831 555 L 820.7037919533119 551.1285532601734" stroke-miterlimit="10"/></g><g transform="translate(-150,-94) scale(1,1)"><g><path fill="none" stroke="none"/><text fill="#000000" stroke="none" font-family="Arial" font-size="13px" font-style="normal" font-weight="normal" text-decoration="none" x="741.4538421630859" y="533.5">«include»</text></g></g><g transform="translate(-150,-94) scale(1,1)"><path fill="none" stroke="#000000" d="M 677 579 L 821 719" stroke-miterlimit="10" stroke-dasharray="3"/></g><g transform="translate(-150,-94) scale(1,1)"><path fill="none" stroke="#000000" d="M 810.7790498916233 714.9340217804229 L 821 719 L 816.6477776394173 708.8976160969777" stroke-miterlimit="10"/></g><g transform="translate(-150,-94) scale(1,1)"><g><path fill="none" stroke="none"/><text fill="#000000" stroke="none" font-family="Arial" font-size="13px" font-style="normal" font-weight="normal" text-decoration="none" x="741.4538421630859" y="633.5">«include»</text></g></g><g transform="translate(-150,-94) scale(1,1)"><path fill="none" stroke="#000000" d="M 710 572 L 839 598" stroke-miterlimit="10" stroke-dasharray="3"/></g><g transform="translate(-150,-94) scale(1,1)"><path fill="none" stroke="#000000" d="M 828.2059536732445 600.1186231132165 L 839 598 L 829.8693638757754 591.8655494160433" stroke-miterlimit="10"/></g><g transform="translate(-150,-94) scale(1,1)"><g><path fill="none" stroke="none"/><text fill="#000000" stroke="none" font-family="Arial" font-size="13px" font-style="normal" font-weight="normal" text-decoration="none" x="751.4538421630859" y="561.5">«include»</text></g></g><g transform="translate(-150,-94) scale(1,1)"><path fill="none" stroke="#000000" d="M 698 579 L 864 655" stroke-miterlimit="10" stroke-dasharray="3"/></g><g transform="translate(-150,-94) scale(1,1)"><path fill="none" stroke="#000000" d="M 853.0073861953972 654.5969593781552 L 864 655 L 856.5120409926006 646.9420554790005" stroke-miterlimit="10"/></g><g transform="translate(-150,-94) scale(1,1)"><g><path fill="none" stroke="none"/><text fill="#000000" stroke="none" font-family="Arial" font-size="13px" font-style="normal" font-weight="normal" text-decoration="none" x="765.4538421630859" y="595.5">«include»</text></g></g><g transform="translate(-150,-94) scale(1,1)"><path fill="none" stroke="#000000" d="M 697 343 L 839 275" stroke-miterlimit="10" stroke-dasharray="3"/></g><g transform="translate(-150,-94) scale(1,1)"><path fill="none" stroke="#000000" d="M 831.6522005934024 283.185954060487 L 839 275 L 828.0159775861445 275.5926648394483" stroke-miterlimit="10"/></g><g transform="translate(-150,-94) scale(1,1)"><g><path fill="none" stroke="none"/><text fill="#000000" stroke="none" font-family="Arial" font-size="13px" font-style="normal" font-weight="normal" text-decoration="none" x="727.4538421630859" y="287.5">«include»</text></g></g><g transform="translate(-150,-94) scale(1,1)"><path fill="none" stroke="#000000" d="M 714 350 L 871 316" stroke-miterlimit="10" stroke-dasharray="3"/></g><g transform="translate(-150,-94) scale(1,1)"><path fill="none" stroke="#000000" d="M 861.958526845586 322.2651227600113 L 871 316 L 860.1766022320276 314.0368238091679" stroke-miterlimit="10"/></g><g transform="translate(-150,-94) scale(1,1)"><g><path fill="none" stroke="none"/><text fill="#000000" stroke="none" font-family="Arial" font-size="13px" font-style="normal" font-weight="normal" text-decoration="none" x="757.4538421630859" y="309.5">«include»</text></g></g><g transform="translate(-150,-94) scale(1,1)"><path fill="none" stroke="#000000" d="M 714 361 L 871 361" stroke-miterlimit="10" stroke-dasharray="3"/></g><g transform="translate(-150,-94) scale(1,1)"><path fill="none" stroke="#000000" d="M 860.8373251423759 365.209517756016 L 871 361 L 860.8373251423758 356.790482243984" stroke-miterlimit="10"/></g><g transform="translate(-150,-94) scale(1,1)"><g><path fill="none" stroke="none"/><text fill="#000000" stroke="none" font-family="Arial" font-size="13px" font-style="normal" font-weight="normal" text-decoration="none" x="764.4538421630859" y="337.5">«include»</text></g></g><g transform="translate(-150,-94) scale(1,1)"><path fill="none" stroke="#000000" d="M 619 279 L 657 203" stroke-miterlimit="10" stroke-dasharray="3"/></g><g transform="translate(-150,-94) scale(1,1)"><path fill="none" stroke="#000000" d="M 656.2202207790025 213.97232629693906 L 657 203 L 648.6900064950472 210.20721915496142" stroke-miterlimit="10"/></g><g transform="translate(-150,-94) scale(1,1)"><g><path fill="none" stroke="none"/><text fill="#000000" stroke="none" font-family="Arial" font-size="13px" font-style="normal" font-weight="normal" text-decoration="none" x="583.4538421630859" y="233.5">«include»</text></g></g><g transform="translate(-150,-94) scale(1,1)"><path fill="none" stroke="#000000" d="M 645 279 L 714 243" stroke-miterlimit="10" stroke-dasharray="3"/></g><g transform="translate(-150,-94) scale(1,1)"><path fill="none" stroke="#000000" d="M 706.9371062932358 251.43300257837927 L 714 243 L 703.0427466562116 243.9688132740829" stroke-miterlimit="10"/></g><g transform="translate(-150,-94) scale(1,1)"><g><path fill="none" stroke="none"/><text fill="#000000" stroke="none" font-family="Arial" font-size="13px" font-style="normal" font-weight="normal" text-decoration="none" x="637.4538421630859" y="240.5">«include»</text></g></g><g transform="translate(-150,-94) scale(1,1)"><path fill="none" stroke="#000000" d="M 315 787 L 246 823" stroke-miterlimit="10" stroke-dasharray="3"/></g><g transform="translate(-150,-94) scale(1,1)"><path fill="none" stroke="#000000" d="M 253.06289370676416 814.5669974216207 L 246 823 L 256.95725334378835 822.0311867259171" stroke-miterlimit="10"/></g><g transform="translate(-150,-94) scale(1,1)"><g><path fill="none" stroke="none"/><text fill="#000000" stroke="none" font-family="Arial" font-size="13px" font-style="normal" font-weight="normal" text-decoration="none" x="266.45384216308594" y="837.5">«include»</text></g></g><g transform="translate(-150,-94) scale(1,1)"><path fill="none" stroke="#000000" d="M 346 787 L 333 879" stroke-miterlimit="10" stroke-dasharray="3"/></g><g transform="translate(-150,-94) scale(1,1)"><path fill="none" stroke="#000000" d="M 330.25379352070763 868.3483170356468 L 333 879 L 338.5900160310973 869.5262615208105" stroke-miterlimit="10"/></g><g transform="translate(-150,-94) scale(1,1)"><g><path fill="none" stroke="none"/><text fill="#000000" stroke="none" font-family="Arial" font-size="13px" font-style="normal" font-weight="normal" text-decoration="none" x="340.45384216308594" y="842.5">«include»</text></g></g><g transform="translate(-150,-94) scale(1,1)"><path fill="none" stroke="#000000" d="M 332 223 L 360 171" stroke-miterlimit="10" stroke-dasharray="3"/></g><g transform="translate(-150,-94) scale(1,1)"><path fill="none" stroke="#000000" d="M 358.8882363772193 181.94367313323372 L 360 171 L 351.4755189196566 177.95220988685384" stroke-miterlimit="10"/></g><g transform="translate(-150,-94) scale(1,1)"><g><path fill="none" stroke="none"/><text fill="#000000" stroke="none" font-family="Arial" font-size="13px" font-style="normal" font-weight="normal" text-decoration="none" x="291.45384216308594" y="188.5">«include»</text></g></g><g transform="translate(-150,-94) scale(1,1)"><path fill="none" stroke="#000000" d="M 289 223 L 251 203" stroke-miterlimit="10" stroke-dasharray="3"/></g><g transform="translate(-150,-94) scale(1,1)"><path fill="none" stroke="#000000" d="M 261.9537040484649 204.00815059323716 L 251 203 L 258.0325682908448 211.45830853271528" stroke-miterlimit="10"/></g><g transform="translate(-150,-94) scale(1,1)"><g><path fill="none" stroke="none"/><text fill="#000000" stroke="none" font-family="Arial" font-size="13px" font-style="normal" font-weight="normal" text-decoration="none" x="228.45384216308594" y="245.5">«include»</text></g></g><g transform="translate(-150,-94) scale(1,1)"><path fill="none" stroke="#000000" d="M 312 223 L 276 155" stroke-miterlimit="10" stroke-dasharray="3"/></g><g transform="translate(-150,-94) scale(1,1)"><path fill="none" stroke="#000000" d="M 284.4753116989089 162.01206757000656 L 276 155 L 277.03466984607826 165.9512309038581" stroke-miterlimit="10"/></g><g transform="translate(-150,-94) scale(1,1)"><g><path fill="none" stroke="none"/><text fill="#000000" stroke="none" font-family="Arial" font-size="13px" font-style="normal" font-weight="normal" text-decoration="none" x="239.45384216308594" y="209.5">«include»</text></g></g><g transform="translate(-150,-94) scale(1,1)"><path fill="none" stroke="#000000" d="M 454 207 L 470 139" stroke-miterlimit="10" stroke-dasharray="3"/></g><g transform="translate(-150,-94) scale(1,1)"><path fill="none" stroke="#000000" d="M 471.76996457585136 149.8566673247471 L 470 139 L 463.5747308676294 147.92837704045957" stroke-miterlimit="10"/></g><g transform="translate(-150,-94) scale(1,1)"><g><path fill="none" stroke="none"/><text fill="#000000" stroke="none" font-family="Arial" font-size="13px" font-style="normal" font-weight="normal" text-decoration="none" x="404.45384216308594" y="172.5">«include»</text></g></g><g transform="translate(-150,-94) scale(1,1)"><path fill="#C0C0C0" stroke="none" d="M 551 144 C 551 134.6111584 573.6096176 127 601.5 127 C 629.3903824 127 652 134.6111584 652 144 C 652 153.3888416 629.3903824 161 601.5 161 C 573.6096176 161 551 153.3888416 551 144 Z" opacity="0.2"/></g><g transform="translate(-150,-94) scale(1,1)"><path fill="#ffffff" stroke="none" d="M 544 137 C 544 127.6111584 566.6096176 120 594.5 120 C 622.3903824 120 645 127.6111584 645 137 C 645 146.3888416 622.3903824 154 594.5 154 C 566.6096176 154 544 146.3888416 544 137 Z"/></g><g transform="translate(-150,-94) scale(1,1)"><path fill="none" stroke="#000000" d="M 544 137 C 544 127.6111584 566.6096176 120 594.5 120 C 622.3903824 120 645 127.6111584 645 137 C 645 146.3888416 622.3903824 154 594.5 154 C 566.6096176 154 544 146.3888416 544 137 Z" stroke-miterlimit="10"/></g><g transform="translate(-150,-94) scale(1,1)"><g><path fill="none" stroke="none"/><text fill="#000000" stroke="none" font-family="Arial" font-size="13px" font-style="normal" font-weight="bold" text-decoration="none" x="568.5" y="144">删除权限</text></g></g><g transform="translate(-150,-94) scale(1,1)"><path fill="none" stroke="#000000" d="M 479 207 L 565 155" stroke-miterlimit="10" stroke-dasharray="3"/></g><g transform="translate(-150,-94) scale(1,1)"><path fill="none" stroke="#000000" d="M 558.481559980045 163.86058348565427 L 565 155 L 554.1253881911564 156.6561455271077" stroke-miterlimit="10"/></g><g transform="translate(-150,-94) scale(1,1)"><g><path fill="none" stroke="none"/><text fill="#000000" stroke="none" font-family="Arial" font-size="13px" font-style="normal" font-weight="normal" text-decoration="none" x="478.45384216308594" y="161.5">«include»</text></g></g><g transform="translate(-150,-94) scale(1,1)"><path fill="#C0C0C0" stroke="none" d="M 423 912 C 423 902.6111584 445.6096176 895 473.5 895 C 501.3903824 895 524 902.6111584 524 912 C 524 921.3888416 501.3903824 929 473.5 929 C 445.6096176 929 423 921.3888416 423 912 Z" opacity="0.2"/></g><g transform="translate(-150,-94) scale(1,1)"><path fill="#ffffff" stroke="none" d="M 416 905 C 416 895.6111584 438.6096176 888 466.5 888 C 494.3903824 888 517 895.6111584 517 905 C 517 914.3888416 494.3903824 922 466.5 922 C 438.6096176 922 416 914.3888416 416 905 Z"/></g><g transform="translate(-150,-94) scale(1,1)"><path fill="none" stroke="#000000" d="M 416 905 C 416 895.6111584 438.6096176 888 466.5 888 C 494.3903824 888 517 895.6111584 517 905 C 517 914.3888416 494.3903824 922 466.5 922 C 438.6096176 922 416 914.3888416 416 905 Z" stroke-miterlimit="10"/></g><g transform="translate(-150,-94) scale(1,1)"><g><path fill="none" stroke="none"/><text fill="#000000" stroke="none" font-family="Arial" font-size="13px" font-style="normal" font-weight="bold" text-decoration="none" x="461.082275390625" y="912">...</text></g></g><g transform="translate(-150,-94) scale(1,1)"><path fill="none" stroke="#000000" d="M 364 787 L 451 887" stroke-miterlimit="10" stroke-dasharray="3"/></g><g transform="translate(-150,-94) scale(1,1)"><path fill="none" stroke="#000000" d="M 441.15372952045556 882.095822429433 L 451 887 L 447.5054125908081 876.5698581582263" stroke-miterlimit="10"/></g><g transform="translate(-150,-94) scale(1,1)"><g><path fill="none" stroke="none"/><text fill="#000000" stroke="none" font-family="Arial" font-size="13px" font-style="normal" font-weight="normal" text-decoration="none" x="401.5" y="823.5">«include»</text></g></g></g></svg>